999
dxfrw 0.6.3
  0
SECTION
  2
HEADER
  9
$ACADVER
  1
AC1021
  9
$DWGCODEPAGE
  3
ANSI_1252
  9
$INSBASE
 10
0
 20
0
 30
0
  9
$EXTMIN
 10
1e+20
 20
1e+20
 30
1e+20
  9
$EXTMAX
 10
-1e+20
 20
-1e+20
 30
-1e+20
  9
$LIMMIN
 10
0
 20
0
  9
$LIMMAX
 10
420
 20
297
  9
$ORTHOMODE
 70
    0
  9
$REGENMODE
 70
    1
  9
$FILLMODE
 70
    1
  9
$QTEXTMODE
 70
    0
  9
$MIRRTEXT
 70
    0
  9
$LTSCALE
 40
1
  9
$ATTMODE
 70
    0
  9
$TEXTSIZE
 40
2.5
  9
$TRACEWID
 40
15.68
  9
$TEXTSTYLE
  7
STANDARD
  9
$CLAYER
  8
0
  9
$CELTYPE
  6
BYLAYER
  9
$CECOLOR
 62
  256
  9
$CELTSCALE
 40
1
  9
$DISPSILH
 70
    0
  9
$DIMSCALE
 40
1
  9
$DIMASZ
 40
2.5
  9
$DIMEXO
 40
0.625
  9
$DIMDLI
 40
3.75
  9
$DIMRND
 40
0
  9
$DIMDLE
 40
0
  9
$DIMEXE
 40
1.25
  9
$DIMTP
 40
0
  9
$DIMTM
 40
0
  9
$DIMTXT
 40
2.5
  9
$DIMCEN
 40
2.5
  9
$DIMTSZ
 40
0
  9
$DIMTOL
 70
    0
  9
$DIMLIM
 70
    0
  9
$DIMTIH
 70
    0
  9
$DIMTOH
 70
    0
  9
$DIMSE1
 70
    0
  9
$DIMSE2
 70
    0
  9
$DIMTAD
 70
    1
  9
$DIMZIN
 70
    8
  9
$DIMBLK
  1

  9
$DIMASO
 70
    1
  9
$DIMSHO
 70
    1
  9
$DIMPOST
  1

  9
$DIMAPOST
  1

  9
$DIMALT
 70
    0
  9
$DIMALTD
 70
    3
  9
$DIMALTF
 40
0.03937
  9
$DIMLFAC
 40
1
  9
$DIMTOFL
 70
    1
  9
$DIMTVP
 40
0
  9
$DIMTIX
 70
    0
  9
$DIMSOXD
 70
    0
  9
$DIMSAH
 70
    0
  9
$DIMBLK1
  1

  9
$DIMBLK2
  1

  9
$DIMSTYLE
  2
STANDARD
  9
$DIMCLRD
 70
    0
  9
$DIMCLRE
 70
    0
  9
$DIMCLRT
 70
    0
  9
$DIMTFAC
 40
1
  9
$DIMGAP
 40
0.625
  9
$DIMJUST
 70
    0
  9
$DIMSD1
 70
    0
  9
$DIMSD2
 70
    0
  9
$DIMTOLJ
 70
    0
  9
$DIMTZIN
 70
    8
  9
$DIMALTZ
 70
    0
  9
$DIMALTTZ
 70
    0
  9
$DIMUPT
 70
    0
  9
$DIMDEC
 70
    2
  9
$DIMTDEC
 70
    2
  9
$DIMALTU
 70
    2
  9
$DIMALTTD
 70
    3
  9
$DIMTXSTY
  7
STANDARD
  9
$DIMAUNIT
 70
    0
  9
$DIMADEC
 70
    0
  9
$DIMALTRND
 40
0
  9
$DIMAZIN
 70
    0
  9
$DIMDSEP
 70
   44
  9
$DIMATFIT
 70
    3
  9
$DIMFRAC
 70
    0
  9
$DIMLDRBLK
  1
STANDARD
  9
$DIMLUNIT
 70
    2
  9
$DIMLWD
 70
   -2
  9
$DIMLWE
 70
   -2
  9
$DIMTMOVE
 70
    0
  9
$DIMFXL
 40
1
  9
$DIMFXLON
 70
    0
  9
$DIMJOGANG
 40
0.7854
  9
$DIMTFILL
 70
    0
  9
$DIMTFILLCLR
 70
    0
  9
$DIMARCSYM
 70
    0
  9
$DIMLTYPE
  6

  9
$DIMLTEX1
  6

  9
$DIMLTEX2
  6

  9
$LUNITS
 70
    2
  9
$LUPREC
 70
    4
  9
$SKETCHINC
 40
1
  9
$FILLETRAD
 40
0
  9
$AUNITS
 70
    0
  9
$AUPREC
 70
    2
  9
$MENU
  1
.
  9
$ELEVATION
 40
0
  9
$PELEVATION
 40
0
  9
$THICKNESS
 40
0
  9
$LIMCHECK
 70
    0
  9
$CHAMFERA
 40
0
  9
$CHAMFERB
 40
0
  9
$CHAMFERC
 40
0
  9
$CHAMFERD
 40
0
  9
$SKPOLY
 70
    0
  9
$USRTIMER
 70
    1
  9
$ANGBASE
 50
0
  9
$ANGDIR
 70
    0
  9
$PDMODE
 70
   34
  9
$PDSIZE
 40
0
  9
$PLINEWID
 40
0
  9
$SPLFRAME
 70
    0
  9
$SPLINETYPE
 70
    2
  9
$SPLINESEGS
 70
    8
  9
$HANDSEED
  5
20000
  9
$SURFTAB1
 70
    6
  9
$SURFTAB2
 70
    6
  9
$SURFTYPE
 70
    6
  9
$SURFU
 70
    6
  9
$SURFV
 70
    6
  9
$UCSBASE
  2

  9
$UCSNAME
  2

  9
$UCSORG
 10
0
 20
0
 30
0
  9
$UCSXDIR
 10
1
 20
0
 30
0
  9
$UCSYDIR
 10
0
 20
1
 30
0
  9
$UCSORTHOREF
  2

  9
$UCSORTHOVIEW
 70
    0
  9
$UCSORGTOP
 10
0
 20
0
 30
0
  9
$UCSORGBOTTOM
 10
0
 20
0
 30
0
  9
$UCSORGLEFT
 10
0
 20
0
 30
0
  9
$UCSORGRIGHT
 10
0
 20
0
 30
0
  9
$UCSORGFRONT
 10
0
 20
0
 30
0
  9
$UCSORGBACK
 10
0
 20
0
 30
0
  9
$PUCSBASE
  2

  9
$PUCSNAME
  2

  9
$PUCSORG
 10
0
 20
0
 30
0
  9
$PUCSXDIR
 10
1
 20
0
 30
0
  9
$PUCSYDIR
 10
0
 20
1
 30
0
  9
$PUCSORTHOREF
  2

  9
$PUCSORTHOVIEW
 70
    0
  9
$PUCSORGTOP
 10
0
 20
0
 30
0
  9
$PUCSORGBOTTOM
 10
0
 20
0
 30
0
  9
$PUCSORGLEFT
 10
0
 20
0
 30
0
  9
$PUCSORGRIGHT
 10
0
 20
0
 30
0
  9
$PUCSORGFRONT
 10
0
 20
0
 30
0
  9
$PUCSORGBACK
 10
0
 20
0
 30
0
  9
$USERI1
 70
    0
  9
$USERI2
 70
    0
  9
$USERI3
 70
    0
  9
$USERI4
 70
    0
  9
$USERI5
 70
    0
  9
$USERR1
 40
0
  9
$USERR2
 40
0
  9
$USERR3
 40
0
  9
$USERR4
 40
0
  9
$USERR5
 40
0
  9
$WORLDVIEW
 70
    1
  9
$SHADEDGE
 70
    3
  9
$SHADEDIF
 70
   70
  9
$TILEMODE
 70
    1
  9
$MAXACTVP
 70
   64
  9
$PINSBASE
 10
0
 20
0
 30
0
  9
$PLIMCHECK
 70
    0
  9
$PEXTMIN
 10
0
 20
0
 30
0
  9
$PEXTMAX
 10
0
 20
0
 30
0
  9
$PLIMMIN
 10
0
 20
0
  9
$PLIMMAX
 10
297
 20
210
  9
$UNITMODE
 70
    0
  9
$VISRETAIN
 70
    1
  9
$PLINEGEN
 70
    0
  9
$PSLTSCALE
 70
    1
  9
$TREEDEPTH
 70
 3020
  9
$CMLSTYLE
  2
Standard
  9
$CMLJUST
 70
    0
  9
$CMLSCALE
 40
20
  9
$PROXYGRAPHICS
 70
    1
  9
$MEASUREMENT
 70
    1
  9
$CELWEIGHT
370
   -1
  9
$ENDCAPS
280
    0
  9
$JOINSTYLE
280
    0
  9
$LWDISPLAY
290
    0
  9
$INSUNITS
 70
    0
  9
$HYPERLINKBASE
  1

  9
$STYLESHEET
  1

  9
$XEDIT
290
    1
  9
$CEPSNTYPE
380
    0
  9
$PSTYLEMODE
290
    1
  9
$EXTNAMES
290
    1
  9
$PSVPSCALE
 40
0
  9
$OLESTARTUP
290
    0
  9
$SORTENTS
280
  127
  9
$INDEXCTL
280
    0
  9
$HIDETEXT
280
    1
  9
$XCLIPFRAME
290
    0
  9
$HALOGAP
280
    0
  9
$OBSCOLOR
 70
  257
  9
$OBSLTYPE
280
    0
  9
$INTERSECTIONDISPLAY
280
    0
  9
$INTERSECTIONCOLOR
 70
  257
  9
$DIMASSOC
280
    1
  9
$PROJECTNAME
  1

  9
$CAMERADISPLAY
290
    0
  9
$LENSLENGTH
 40
50
  9
$CAMERAHEIGHT
 40
0
  9
$STEPSPERSEC
 40
2
  9
$STEPSIZE
 40
50
  9
$3DDWFPREC
 40
2
  9
$PSOLWIDTH
 40
5
  9
$PSOLHEIGHT
 40
80
  9
$LOFTANG1
 40
1.570796326794897
  9
$LOFTANG2
 40
1.570796326794897
  9
$LOFTMAG1
 40
0
  9
$LOFTMAG2
 40
0
  9
$LOFTPARAM
 70
    7
  9
$LOFTNORMALS
280
    1
  9
$LATITUDE
 40
1
  9
$LONGITUDE
 40
1
  9
$NORTHDIRECTION
 40
0
  9
$TIMEZONE
 70
-8000
  9
$LIGHTGLYPHDISPLAY
280
    1
  9
$TILEMODELIGHTSYNCH
280
    1
  9
$SOLIDHIST
280
    1
  9
$SHOWHIST
280
    1
  9
$DWFFRAME
280
    2
  9
$DGNFRAME
280
    0
  9
$REALWORLDSCALE
290
    1
  9
$INTERFERECOLOR
 62
    1
  9
$CSHADOW
280
    0
  9
$SHADOWPLANELOCATION
 40
0
  0
ENDSEC
  0
SECTION
  2
CLASSES
  0
ENDSEC
  0
SECTION
  2
TABLES
  0
TABLE
  2
VPORT
  5
8
330
0
100
AcDbSymbolTable
 70
    1
  0
VPORT
  5
31
330
2
100
AcDbSymbolTableRecord
100
AcDbViewportTableRecord
  2
*ACTIVE
 70
    0
 10
0
 20
0
 11
1
 21
1
 12
0.651828
 22
-0.16
 13
0
 23
0
 14
10
 24
10
 15
10
 25
10
 16
0
 26
0
 36
1
 17
0
 27
0
 37
0
 40
5.13732
 41
2.4426877
 42
50
 43
0
 44
0
 50
0
 51
0
 71
    0
 72
  100
 73
    1
 74
    3
 75
    0
 76
    0
 77
    0
 78
    0
281
    0
 65
    1
110
0
120
0
130
0
111
1
121
0
131
0
112
0
122
1
132
0
 79
    0
146
0
348
10020
 60
    7
 61
    5
292
1
282
    1
141
0
142
0
 63
  250
421
3358443
  0
ENDTAB
  0
TABLE
  2
LTYPE
  5
5
330
0
100
AcDbSymbolTable
 70
    4
  0
LTYPE
  5
14
330
5
100
AcDbSymbolTableRecord
100
AcDbLinetypeTableRecord
  2
ByBlock
 70
    0
  3

 72
   65
 73
    0
 40
0
  0
LTYPE
  5
15
330
5
100
AcDbSymbolTableRecord
100
AcDbLinetypeTableRecord
  2
ByLayer
 70
    0
  3

 72
   65
 73
    0
 40
0
  0
LTYPE
  5
16
330
5
100
AcDbSymbolTableRecord
100
AcDbLinetypeTableRecord
  2
Continuous
 70
    0
  3
Solid line
 72
   65
 73
    0
 40
0
  0
LTYPE
  5
32
330
5
100
AcDbSymbolTableRecord
100
AcDbLinetypeTableRecord
  2
DASHED
 70
    0
  3

 72
   65
 73
    2
 40
3
 49
1
 74
    0
 49
-2
 74
    0
  0
LTYPE
  5
33
330
5
100
AcDbSymbolTableRecord
100
AcDbLinetypeTableRecord
  2
DASHED
 70
    0
  3

 72
   65
 73
    2
 40
2
 49
1
 74
    0
 49
-1
 74
    0
  0
LTYPE
  5
34
330
5
100
AcDbSymbolTableRecord
100
AcDbLinetypeTableRecord
  2
DASHEDX2
 70
    0
  3

 72
   65
 73
    2
 40
3
 49
2
 74
    0
 49
-1
 74
    0
  0
LTYPE
  5
35
330
5
100
AcDbSymbolTableRecord
100
AcDbLinetypeTableRecord
  2
DASHDOT
 70
    0
  3

 72
   65
 73
    4
 40
3
 49
1
 74
    0
 49
-1
 74
    0
 49
0
 74
    0
 49
-1
 74
    0
  0
LTYPE
  5
36
330
5
100
AcDbSymbolTableRecord
100
AcDbLinetypeTableRecord
  2
DIVIDE
 70
    0
  3

 72
   65
 73
    6
 40
4
 49
1
 74
    0
 49
-1
 74
    0
 49
0
 74
    0
 49
-1
 74
    0
 49
0
 74
    0
 49
-1
 74
    0
  0
LTYPE
  5
37
330
5
100
AcDbSymbolTableRecord
100
AcDbLinetypeTableRecord
  2
DOT
 70
    0
  3

 72
   65
 73
    2
 40
1
 49
1
 74
    0
 49
0
 74
    0
  0
ENDTAB
  0
TABLE
  2
LAYER
  5
2
330
0
100
AcDbSymbolTable
 70
    1
  0
LAYER
  5
38
330
2
100
AcDbSymbolTableRecord
100
AcDbLayerTableRecord
  2
dimensions
 70
    0
 62
    7
  6
CONTINUOUS
370
   -3
390
F
  0
LAYER
  5
39
330
2
100
AcDbSymbolTableRecord
100
AcDbLayerTableRecord
  2
text
 70
    0
 62
    7
  6
CONTINUOUS
370
   -3
390
F
  0
LAYER
  5
3A
330
2
100
AcDbSymbolTableRecord
100
AcDbLayerTableRecord
  2
s001-#def-active-grp
 70
    0
 62
    7
  6
CONTINUOUS
370
   -3
390
F
  0
LAYER
  5
10
330
2
100
AcDbSymbolTableRecord
100
AcDbLayerTableRecord
  2
0
 70
    0
 62
    7
  6
CONTINUOUS
370
   -3
390
F
  0
ENDTAB
  0
TABLE
  2
STYLE
  5
3
330
0
100
AcDbSymbolTable
 70
    3
  0
STYLE
  5
3B
330
2
100
AcDbSymbolTableRecord
100
AcDbTextStyleTableRecord
  2
unicode
 70
    0
 40
0
 41
1
 50
0
 71
    0
 42
1
  3
unicode
  4

  0
STYLE
  5
3C
330
2
100
AcDbSymbolTableRecord
100
AcDbTextStyleTableRecord
  2
Standard
 70
    0
 40
0
 41
1
 50
0
 71
    0
 42
1
  3
txt
  4

  0
ENDTAB
  0
TABLE
  2
VIEW
  5
6
330
0
100
AcDbSymbolTable
 70
    0
  0
ENDTAB
  0
TABLE
  2
UCS
  5
7
330
0
100
AcDbSymbolTable
 70
    0
  0
ENDTAB
  0
TABLE
  2
APPID
  5
9
330
0
100
AcDbSymbolTable
 70
    1
  0
APPID
  5
12
330
9
100
AcDbSymbolTableRecord
100
AcDbRegAppTableRecord
  2
ACAD
 70
    0
  0
ENDTAB
  0
TABLE
  2
DIMSTYLE
  5
A
330
0
100
AcDbSymbolTable
 70
    1
100
AcDbDimStyleTable
 71
    1
  0
DIMSTYLE
105
3D
330
A
100
AcDbSymbolTableRecord
100
AcDbDimStyleTableRecord
  2
Standard
 70
    0
 40
1
 41
2.5
 42
0.625
 43
3.75
 44
1.25
 45
0
 46
0
 47
0
 48
0
140
2.5
141
2.5
142
0
143
0.03937007874015748
144
1
145
0
146
1
147
0.625
148
0
 71
    0
 72
    0
 73
    0
 74
    0
 75
    0
 76
    0
 77
    1
 78
    8
 79
    0
170
    0
171
    3
172
    1
173
    0
174
    0
175
    0
176
    0
177
    0
178
    0
179
    0
271
    2
272
    2
273
    2
274
    3
275
    0
276
    0
277
    2
278
   44
279
    0
280
    0
281
    0
282
    0
283
    0
284
    8
285
    0
286
    0
288
    0
289
    3
341

371
   -2
372
   -2
  0
ENDTAB
  0
TABLE
  2
BLOCK_RECORD
  5
1
330
0
100
AcDbSymbolTable
 70
    2
  0
BLOCK_RECORD
  5
1F
330
1
100
AcDbSymbolTableRecord
100
AcDbBlockTableRecord
  2
*Model_Space
 70
    0
280
    1
281
    0
  0
BLOCK_RECORD
  5
1E
330
1
100
AcDbSymbolTableRecord
100
AcDbBlockTableRecord
  2
*Paper_Space
 70
    0
280
    1
281
    0
  0
ENDTAB
  0
ENDSEC
  0
SECTION
  2
BLOCKS
  0
BLOCK
  5
20
330
1F
100
AcDbEntity
  8
0
100
AcDbBlockBegin
  2
*Model_Space
 70
    0
 10
0
 20
0
 30
0
  3
*Model_Space
  1

  0
ENDBLK
  5
21
330
1F
100
AcDbEntity
  8
0
100
AcDbBlockEnd
  0
BLOCK
  5
1C
330
1B
100
AcDbEntity
  8
0
100
AcDbBlockBegin
  2
*Paper_Space
 70
    0
 10
0
 20
0
 30
0
  3
*Paper_Space
  1

  0
ENDBLK
  5
1D
330
1F
100
AcDbEntity
  8
0
100
AcDbBlockEnd
  0
ENDSEC
  0
SECTION
  2
ENTITIES
  0
LINE
  5
3E
100
AcDbEntity
  8
s001-#def-active-grp
  6
CONTINUOUS
 62
    7
420
    0
370
   35
100
AcDbLine
 10
-96.42580130492659
 20
112.439123299875
 11
-96.42580130492659
 21
24.43912329987496
  0
LINE
  5
3F
100
AcDbEntity
  8
s001-#def-active-grp
  6
CONTINUOUS
 62
    7
420
    0
370
   35
100
AcDbLine
 10
-91.42580130492659
 20
19.43912329987496
 11
46.57419869507341
 21
19.43912329987496
  0
LINE
  5
40
100
AcDbEntity
  8
s001-#def-active-grp
  6
CONTINUOUS
 62
    7
420
    0
370
   35
100
AcDbLine
 10
51.57419869507341
 20
24.43912329987496
 11
51.57419869507341
 21
112.439123299875
  0
LINE
  5
41
100
AcDbEntity
  8
s001-#def-active-grp
  6
CONTINUOUS
 62
    7
420
    0
370
   35
100
AcDbLine
 10
46.57419869507341
 20
117.439123299875
 11
-91.42580130492659
 21
117.439123299875
  0
LINE
  5
42
100
AcDbEntity
  8
s001-#def-active-grp
  6
CONTINUOUS
 62
    7
420
    0
370
   35
100
AcDbLine
 10
-102.4258013049266
 20
7.439123299874957
 11
-102.4258013049266
 21
-86.56087670012504
  0
LINE
  5
43
100
AcDbEntity
  8
s001-#def-active-grp
  6
CONTINUOUS
 62
    7
420
    0
370
   35
100
AcDbLine
 10
-94.42580130492659
 20
-94.56087670012504
 11
49.57419869507341
 21
-94.56087670012504
  0
LINE
  5
44
100
AcDbEntity
  8
s001-#def-active-grp
  6
CONTINUOUS
 62
    7
420
    0
370
   35
100
AcDbLine
 10
57.57419869507341
 20
-86.56087670012504
 11
57.57419869507341
 21
7.439123299874957
  0
LINE
  5
45
100
AcDbEntity
  8
s001-#def-active-grp
  6
CONTINUOUS
 62
    7
420
    0
370
   35
100
AcDbLine
 10
49.57419869507341
 20
15.43912329987496
 11
-94.42580130492659
 21
15.43912329987496
  0
LINE
  5
46
100
AcDbEntity
  8
s001-#def-active-grp
  6
CONTINUOUS
 62
    7
420
    0
370
   35
100
AcDbLine
 10
-81.42580130492659
 20
-0.5608767001250357
 11
36.57419869507341
 21
-0.5608767001250357
  0
LINE
  5
47
100
AcDbEntity
  8
s001-#def-active-grp
  6
CONTINUOUS
 62
    7
420
    0
370
   35
100
AcDbLine
 10
41.57419869507341
 20
-5.560876700125036
 11
41.57419869507341
 21
-73.56087670012504
  0
LINE
  5
48
100
AcDbEntity
  8
s001-#def-active-grp
  6
CONTINUOUS
 62
    7
420
    0
370
   35
100
AcDbLine
 10
36.57419869507341
 20
-78.56087670012504
 11
-81.42580130492659
 21
-78.56087670012504
  0
LINE
  5
49
100
AcDbEntity
  8
s001-#def-active-grp
  6
CONTINUOUS
 62
    7
420
    0
370
   35
100
AcDbLine
 10
-86.42580130492659
 20
-73.56087670012504
 11
-86.42580130492659
 21
-5.560876700125036
  0
ARC
  5
4A
100
AcDbEntity
  8
s001-#def-active-grp
  6
CONTINUOUS
 62
    7
420
    0
370
   35
100
AcDbCircle
 10
-91.42580130492659
 20
112.439123299875
 40
5
100
AcDbArc
 50
90
 51
180
  0
ARC
  5
4B
100
AcDbEntity
  8
s001-#def-active-grp
  6
CONTINUOUS
 62
    7
420
    0
370
   35
100
AcDbCircle
 10
-91.42580130492659
 20
24.43912329987496
 40
5
100
AcDbArc
 50
180
 51
-90
  0
ARC
  5
4C
100
AcDbEntity
  8
s001-#def-active-grp
  6
CONTINUOUS
 62
    7
420
    0
370
   35
100
AcDbCircle
 10
46.57419869507341
 20
24.43912329987497
 40
5.000000000000007
100
AcDbArc
 50
-90
 51
-8.142219984546604e-14
  0
ARC
  5
4D
100
AcDbEntity
  8
s001-#def-active-grp
  6
CONTINUOUS
 62
    7
420
    0
370
   35
100
AcDbCircle
 10
46.57419869507341
 20
112.439123299875
 40
5
100
AcDbArc
 50
1.628443996909321e-13
 51
90
  0
ARC
  5
4E
100
AcDbEntity
  8
s001-#def-active-grp
  6
CONTINUOUS
 62
    7
420
    0
370
   35
100
AcDbCircle
 10
-56.92580130492659
 20
112.439123299875
 40
2.100000000000009
100
AcDbArc
 50
-90
 51
3.877247611688843e-13
  0
ARC
  5
4F
100
AcDbEntity
  8
s001-#def-active-grp
  6
CONTINUOUS
 62
    7
420
    0
370
   35
100
AcDbCircle
 10
-56.92580130492659
 20
112.439123299875
 40
2.09999999999998
100
AcDbArc
 50
179.9999999999996
 51
-90
  0
ARC
  5
50
100
AcDbEntity
  8
s001-#def-active-grp
  6
CONTINUOUS
 62
    7
420
    0
370
   35
100
AcDbCircle
 10
-56.92580130492659
 20
112.439123299875
 40
2.099999999999994
100
AcDbArc
 50
90
 51
-179.9999999999996
  0
ARC
  5
51
100
AcDbEntity
  8
s001-#def-active-grp
  6
CONTINUOUS
 62
    7
420
    0
370
   35
100
AcDbCircle
 10
-56.92580130492659
 20
112.439123299875
 40
2.09999999999998
100
AcDbArc
 50
-3.877247611688843e-13
 51
90
  0
ARC
  5
52
100
AcDbEntity
  8
s001-#def-active-grp
  6
CONTINUOUS
 62
    7
420
    0
370
   35
100
AcDbCircle
 10
-22.42580130492659
 20
112.439123299875
 40
2.100000000000001
100
AcDbArc
 50
-90
 51
0
  0
ARC
  5
53
100
AcDbEntity
  8
s001-#def-active-grp
  6
CONTINUOUS
 62
    7
420
    0
370
   35
100
AcDbCircle
 10
-22.42580130492659
 20
112.439123299875
 40
2.099999999999994
100
AcDbArc
 50
180
 51
-90
  0
ARC
  5
54
100
AcDbEntity
  8
s001-#def-active-grp
  6
CONTINUOUS
 62
    7
420
    0
370
   35
100
AcDbCircle
 10
-22.42580130492659
 20
112.439123299875
 40
2.100000000000001
100
AcDbArc
 50
90
 51
180
  0
ARC
  5
55
100
AcDbEntity
  8
s001-#def-active-grp
  6
CONTINUOUS
 62
    7
420
    0
370
   35
100
AcDbCircle
 10
-22.42580130492659
 20
112.439123299875
 40
2.099999999999994
100
AcDbArc
 50
0
 51
90
  0
ARC
  5
56
100
AcDbEntity
  8
s001-#def-active-grp
  6
CONTINUOUS
 62
    7
420
    0
370
   35
100
AcDbCircle
 10
-91.42580130492659
 20
112.439123299875
 40
2.099999999999994
100
AcDbArc
 50
-90
 51
0
  0
ARC
  5
57
100
AcDbEntity
  8
s001-#def-active-grp
  6
CONTINUOUS
 62
    7
420
    0
370
   35
100
AcDbCircle
 10
-91.42580130492659
 20
112.439123299875
 40
2.09999999999998
100
AcDbArc
 50
179.9999999999996
 51
-90
  0
ARC
  5
58
100
AcDbEntity
  8
s001-#def-active-grp
  6
CONTINUOUS
 62
    7
420
    0
370
   35
100
AcDbCircle
 10
-91.42580130492659
 20
112.439123299875
 40
2.099999999999994
100
AcDbArc
 50
90
 51
-179.9999999999996
  0
ARC
  5
59
100
AcDbEntity
  8
s001-#def-active-grp
  6
CONTINUOUS
 62
    7
420
    0
370
   35
100
AcDbCircle
 10
-91.42580130492659
 20
112.439123299875
 40
2.099999999999994
100
AcDbArc
 50
0
 51
90
  0
ARC
  5
5A
100
AcDbEntity
  8
s001-#def-active-grp
  6
CONTINUOUS
 62
    7
420
    0
370
   35
100
AcDbCircle
 10
-91.42580130492659
 20
68.43912329987496
 40
2.099999999999994
100
AcDbArc
 50
-90
 51
0
  0
ARC
  5
5B
100
AcDbEntity
  8
s001-#def-active-grp
  6
CONTINUOUS
 62
    7
420
    0
370
   35
100
AcDbCircle
 10
-91.42580130492659
 20
68.43912329987495
 40
2.09999999999998
100
AcDbArc
 50
179.9999999999996
 51
-90
  0
ARC
  5
5C
100
AcDbEntity
  8
s001-#def-active-grp
  6
CONTINUOUS
 62
    7
420
    0
370
   35
100
AcDbCircle
 10
-91.42580130492659
 20
68.43912329987498
 40
2.099999999999994
100
AcDbArc
 50
90
 51
-179.9999999999996
  0
ARC
  5
5D
100
AcDbEntity
  8
s001-#def-active-grp
  6
CONTINUOUS
 62
    7
420
    0
370
   35
100
AcDbCircle
 10
-91.42580130492659
 20
68.43912329987496
 40
2.099999999999994
100
AcDbArc
 50
0
 51
90
  0
ARC
  5
5E
100
AcDbEntity
  8
s001-#def-active-grp
  6
CONTINUOUS
 62
    7
420
    0
370
   35
100
AcDbCircle
 10
-91.42580130492659
 20
24.43912329987496
 40
2.099999999999994
100
AcDbArc
 50
-90
 51
0
  0
ARC
  5
5F
100
AcDbEntity
  8
s001-#def-active-grp
  6
CONTINUOUS
 62
    7
420
    0
370
   35
100
AcDbCircle
 10
-91.42580130492659
 20
24.43912329987495
 40
2.099999999999987
100
AcDbArc
 50
179.9999999999996
 51
-90
  0
ARC
  5
60
100
AcDbEntity
  8
s001-#def-active-grp
  6
CONTINUOUS
 62
    7
420
    0
370
   35
100
AcDbCircle
 10
-91.42580130492659
 20
24.43912329987498
 40
2.099999999999994
100
AcDbArc
 50
90
 51
-179.9999999999996
  0
ARC
  5
61
100
AcDbEntity
  8
s001-#def-active-grp
  6
CONTINUOUS
 62
    7
420
    0
370
   35
100
AcDbCircle
 10
-91.42580130492659
 20
24.43912329987496
 40
2.099999999999994
100
AcDbArc
 50
0
 51
90
  0
ARC
  5
62
100
AcDbEntity
  8
s001-#def-active-grp
  6
CONTINUOUS
 62
    7
420
    0
370
   35
100
AcDbCircle
 10
-91.42580130492659
 20
90.43912329987496
 40
2.099999999999994
100
AcDbArc
 50
-90
 51
0
  0
ARC
  5
63
100
AcDbEntity
  8
s001-#def-active-grp
  6
CONTINUOUS
 62
    7
420
    0
370
   35
100
AcDbCircle
 10
-91.42580130492659
 20
90.43912329987495
 40
2.09999999999998
100
AcDbArc
 50
179.9999999999996
 51
-90
  0
ARC
  5
64
100
AcDbEntity
  8
s001-#def-active-grp
  6
CONTINUOUS
 62
    7
420
    0
370
   35
100
AcDbCircle
 10
-91.42580130492658
 20
90.43912329987498
 40
2.100000000000009
100
AcDbArc
 50
90.0000000000004
 51
-179.9999999999996
  0
ARC
  5
65
100
AcDbEntity
  8
s001-#def-active-grp
  6
CONTINUOUS
 62
    7
420
    0
370
   35
100
AcDbCircle
 10
-91.42580130492661
 20
90.43912329987496
 40
2.099999999999994
100
AcDbArc
 50
0
 51
89.99999999999962
  0
ARC
  5
66
100
AcDbEntity
  8
s001-#def-active-grp
  6
CONTINUOUS
 62
    7
420
    0
370
   35
100
AcDbCircle
 10
-91.42580130492659
 20
46.43912329987496
 40
2.099999999999994
100
AcDbArc
 50
-90
 51
0
  0
ARC
  5
67
100
AcDbEntity
  8
s001-#def-active-grp
  6
CONTINUOUS
 62
    7
420
    0
370
   35
100
AcDbCircle
 10
-91.42580130492659
 20
46.43912329987495
 40
2.09999999999998
100
AcDbArc
 50
179.9999999999996
 51
-90
  0
ARC
  5
68
100
AcDbEntity
  8
s001-#def-active-grp
  6
CONTINUOUS
 62
    7
420
    0
370
   35
100
AcDbCircle
 10
-91.42580130492659
 20
46.43912329987498
 40
2.099999999999994
100
AcDbArc
 50
90
 51
-179.9999999999996
  0
ARC
  5
69
100
AcDbEntity
  8
s001-#def-active-grp
  6
CONTINUOUS
 62
    7
420
    0
370
   35
100
AcDbCircle
 10
-91.42580130492659
 20
46.43912329987496
 40
2.099999999999994
100
AcDbArc
 50
0
 51
90
  0
ARC
  5
6A
100
AcDbEntity
  8
s001-#def-active-grp
  6
CONTINUOUS
 62
    7
420
    0
370
   35
100
AcDbCircle
 10
-56.92580130492659
 20
24.43912329987496
 40
2.100000000000009
100
AcDbArc
 50
-90
 51
1.938623805844421e-13
  0
ARC
  5
6B
100
AcDbEntity
  8
s001-#def-active-grp
  6
CONTINUOUS
 62
    7
420
    0
370
   35
100
AcDbCircle
 10
-56.92580130492659
 20
24.43912329987496
 40
2.099999999999994
100
AcDbArc
 50
179.9999999999998
 51
-90
  0
ARC
  5
6C
100
AcDbEntity
  8
s001-#def-active-grp
  6
CONTINUOUS
 62
    7
420
    0
370
   35
100
AcDbCircle
 10
-56.92580130492659
 20
24.43912329987497
 40
2.099999999999994
100
AcDbArc
 50
90
 51
-179.9999999999998
  0
ARC
  5
6D
100
AcDbEntity
  8
s001-#def-active-grp
  6
CONTINUOUS
 62
    7
420
    0
370
   35
100
AcDbCircle
 10
-56.92580130492659
 20
24.43912329987497
 40
2.099999999999987
100
AcDbArc
 50
-1.938623805844421e-13
 51
90
  0
ARC
  5
6E
100
AcDbEntity
  8
s001-#def-active-grp
  6
CONTINUOUS
 62
    7
420
    0
370
   35
100
AcDbCircle
 10
-22.42580130492659
 20
24.43912329987496
 40
2.100000000000001
100
AcDbArc
 50
-90
 51
0
  0
ARC
  5
6F
100
AcDbEntity
  8
s001-#def-active-grp
  6
CONTINUOUS
 62
    7
420
    0
370
   35
100
AcDbCircle
 10
-22.42580130492659
 20
24.43912329987496
 40
2.100000000000001
100
AcDbArc
 50
180
 51
-90
  0
ARC
  5
70
100
AcDbEntity
  8
s001-#def-active-grp
  6
CONTINUOUS
 62
    7
420
    0
370
   35
100
AcDbCircle
 10
-22.42580130492659
 20
24.43912329987496
 40
2.100000000000001
100
AcDbArc
 50
90
 51
179.9999999999999
  0
ARC
  5
71
100
AcDbEntity
  8
s001-#def-active-grp
  6
CONTINUOUS
 62
    7
420
    0
370
   35
100
AcDbCircle
 10
-22.42580130492659
 20
24.43912329987496
 40
2.099999999999994
100
AcDbArc
 50
0
 51
90
  0
ARC
  5
72
100
AcDbEntity
  8
s001-#def-active-grp
  6
CONTINUOUS
 62
    7
420
    0
370
   35
100
AcDbCircle
 10
12.07419869507341
 20
112.439123299875
 40
2.100000000000001
100
AcDbArc
 50
-90
 51
0
  0
ARC
  5
73
100
AcDbEntity
  8
s001-#def-active-grp
  6
CONTINUOUS
 62
    7
420
    0
370
   35
100
AcDbCircle
 10
12.07419869507341
 20
112.439123299875
 40
2.099999999999994
100
AcDbArc
 50
180
 51
-90
  0
ARC
  5
74
100
AcDbEntity
  8
s001-#def-active-grp
  6
CONTINUOUS
 62
    7
420
    0
370
   35
100
AcDbCircle
 10
12.07419869507341
 20
112.439123299875
 40
2.100000000000001
100
AcDbArc
 50
90
 51
180
  0
ARC
  5
75
100
AcDbEntity
  8
s001-#def-active-grp
  6
CONTINUOUS
 62
    7
420
    0
370
   35
100
AcDbCircle
 10
12.07419869507341
 20
112.439123299875
 40
2.099999999999994
100
AcDbArc
 50
0
 51
90
  0
ARC
  5
76
100
AcDbEntity
  8
s001-#def-active-grp
  6
CONTINUOUS
 62
    7
420
    0
370
   35
100
AcDbCircle
 10
46.57419869507341
 20
112.439123299875
 40
2.099999999999994
100
AcDbArc
 50
-90
 51
0
  0
ARC
  5
77
100
AcDbEntity
  8
s001-#def-active-grp
  6
CONTINUOUS
 62
    7
420
    0
370
   35
100
AcDbCircle
 10
46.57419869507341
 20
112.439123299875
 40
2.099999999999994
100
AcDbArc
 50
180
 51
-90
  0
ARC
  5
78
100
AcDbEntity
  8
s001-#def-active-grp
  6
CONTINUOUS
 62
    7
420
    0
370
   35
100
AcDbCircle
 10
46.57419869507341
 20
112.439123299875
 40
2.099999999999994
100
AcDbArc
 50
90
 51
180
  0
ARC
  5
79
100
AcDbEntity
  8
s001-#def-active-grp
  6
CONTINUOUS
 62
    7
420
    0
370
   35
100
AcDbCircle
 10
46.57419869507341
 20
112.439123299875
 40
2.099999999999994
100
AcDbArc
 50
0
 51
90
  0
ARC
  5
7A
100
AcDbEntity
  8
s001-#def-active-grp
  6
CONTINUOUS
 62
    7
420
    0
370
   35
100
AcDbCircle
 10
46.57419869507341
 20
90.43912329987496
 40
2.099999999999994
100
AcDbArc
 50
-90
 51
0
  0
ARC
  5
7B
100
AcDbEntity
  8
s001-#def-active-grp
  6
CONTINUOUS
 62
    7
420
    0
370
   35
100
AcDbCircle
 10
46.57419869507341
 20
90.43912329987496
 40
2.099999999999994
100
AcDbArc
 50
180
 51
-90
  0
ARC
  5
7C
100
AcDbEntity
  8
s001-#def-active-grp
  6
CONTINUOUS
 62
    7
420
    0
370
   35
100
AcDbCircle
 10
46.57419869507342
 20
90.43912329987496
 40
2.100000000000009
100
AcDbArc
 50
90.0000000000004
 51
180
  0
ARC
  5
7D
100
AcDbEntity
  8
s001-#def-active-grp
  6
CONTINUOUS
 62
    7
420
    0
370
   35
100
AcDbCircle
 10
46.57419869507339
 20
90.43912329987496
 40
2.099999999999994
100
AcDbArc
 50
0
 51
89.99999999999962
  0
ARC
  5
7E
100
AcDbEntity
  8
s001-#def-active-grp
  6
CONTINUOUS
 62
    7
420
    0
370
   35
100
AcDbCircle
 10
46.57419869507341
 20
68.43912329987496
 40
2.099999999999994
100
AcDbArc
 50
-90
 51
0
  0
ARC
  5
7F
100
AcDbEntity
  8
s001-#def-active-grp
  6
CONTINUOUS
 62
    7
420
    0
370
   35
100
AcDbCircle
 10
46.57419869507341
 20
68.43912329987496
 40
2.099999999999994
100
AcDbArc
 50
180
 51
-90
  0
ARC
  5
80
100
AcDbEntity
  8
s001-#def-active-grp
  6
CONTINUOUS
 62
    7
420
    0
370
   35
100
AcDbCircle
 10
46.57419869507341
 20
68.43912329987496
 40
2.099999999999994
100
AcDbArc
 50
90
 51
180
  0
ARC
  5
81
100
AcDbEntity
  8
s001-#def-active-grp
  6
CONTINUOUS
 62
    7
420
    0
370
   35
100
AcDbCircle
 10
46.57419869507341
 20
68.43912329987496
 40
2.099999999999994
100
AcDbArc
 50
0
 51
90
  0
ARC
  5
82
100
AcDbEntity
  8
s001-#def-active-grp
  6
CONTINUOUS
 62
    7
420
    0
370
   35
100
AcDbCircle
 10
46.57419869507341
 20
46.43912329987496
 40
2.099999999999994
100
AcDbArc
 50
-90
 51
0
  0
ARC
  5
83
100
AcDbEntity
  8
s001-#def-active-grp
  6
CONTINUOUS
 62
    7
420
    0
370
   35
100
AcDbCircle
 10
46.57419869507341
 20
46.43912329987496
 40
2.099999999999994
100
AcDbArc
 50
180
 51
-90
  0
ARC
  5
84
100
AcDbEntity
  8
s001-#def-active-grp
  6
CONTINUOUS
 62
    7
420
    0
370
   35
100
AcDbCircle
 10
46.57419869507341
 20
46.43912329987496
 40
2.099999999999994
100
AcDbArc
 50
90
 51
180
  0
ARC
  5
85
100
AcDbEntity
  8
s001-#def-active-grp
  6
CONTINUOUS
 62
    7
420
    0
370
   35
100
AcDbCircle
 10
46.57419869507341
 20
46.43912329987496
 40
2.099999999999994
100
AcDbArc
 50
0
 51
90
  0
ARC
  5
86
100
AcDbEntity
  8
s001-#def-active-grp
  6
CONTINUOUS
 62
    7
420
    0
370
   35
100
AcDbCircle
 10
46.57419869507341
 20
24.43912329987496
 40
2.099999999999994
100
AcDbArc
 50
-90
 51
0
  0
ARC
  5
87
100
AcDbEntity
  8
s001-#def-active-grp
  6
CONTINUOUS
 62
    7
420
    0
370
   35
100
AcDbCircle
 10
46.57419869507341
 20
24.43912329987496
 40
2.100000000000001
100
AcDbArc
 50
180
 51
-90
  0
ARC
  5
88
100
AcDbEntity
  8
s001-#def-active-grp
  6
CONTINUOUS
 62
    7
420
    0
370
   35
100
AcDbCircle
 10
46.57419869507341
 20
24.43912329987496
 40
2.099999999999994
100
AcDbArc
 50
90
 51
180
  0
ARC
  5
89
100
AcDbEntity
  8
s001-#def-active-grp
  6
CONTINUOUS
 62
    7
420
    0
370
   35
100
AcDbCircle
 10
46.57419869507341
 20
24.43912329987496
 40
2.099999999999994
100
AcDbArc
 50
0
 51
90
  0
ARC
  5
8A
100
AcDbEntity
  8
s001-#def-active-grp
  6
CONTINUOUS
 62
    7
420
    0
370
   35
100
AcDbCircle
 10
12.07419869507341
 20
24.43912329987496
 40
2.100000000000001
100
AcDbArc
 50
-90
 51
0
  0
ARC
  5
8B
100
AcDbEntity
  8
s001-#def-active-grp
  6
CONTINUOUS
 62
    7
420
    0
370
   35
100
AcDbCircle
 10
12.07419869507341
 20
24.43912329987496
 40
2.100000000000001
100
AcDbArc
 50
180
 51
-90
  0
ARC
  5
8C
100
AcDbEntity
  8
s001-#def-active-grp
  6
CONTINUOUS
 62
    7
420
    0
370
   35
100
AcDbCircle
 10
12.07419869507341
 20
24.43912329987496
 40
2.100000000000001
100
AcDbArc
 50
90
 51
180
  0
ARC
  5
8D
100
AcDbEntity
  8
s001-#def-active-grp
  6
CONTINUOUS
 62
    7
420
    0
370
   35
100
AcDbCircle
 10
12.07419869507341
 20
24.43912329987496
 40
2.099999999999994
100
AcDbArc
 50
0
 51
90
  0
ARC
  5
8E
100
AcDbEntity
  8
s001-#def-active-grp
  6
CONTINUOUS
 62
    7
420
    0
370
   35
100
AcDbCircle
 10
-22.4258013049266
 20
68.43912329987495
 40
35.00000000000001
100
AcDbArc
 50
-90
 51
0
  0
ARC
  5
8F
100
AcDbEntity
  8
s001-#def-active-grp
  6
CONTINUOUS
 62
    7
420
    0
370
   35
100
AcDbCircle
 10
-22.4258013049266
 20
68.43912329987496
 40
35
100
AcDbArc
 50
180
 51
-90
  0
ARC
  5
90
100
AcDbEntity
  8
s001-#def-active-grp
  6
CONTINUOUS
 62
    7
420
    0
370
   35
100
AcDbCircle
 10
-22.4258013049266
 20
68.43912329987495
 40
34.99999999999999
100
AcDbArc
 50
89.99999999999997
 51
180
  0
ARC
  5
91
100
AcDbEntity
  8
s001-#def-active-grp
  6
CONTINUOUS
 62
    7
420
    0
370
   35
100
AcDbCircle
 10
-22.42580130492657
 20
68.43912329987496
 40
35
100
AcDbArc
 50
0
 51
90.00000000000003
  0
ARC
  5
92
100
AcDbEntity
  8
s001-#def-active-grp
  6
CONTINUOUS
 62
    7
420
    0
370
   35
100
AcDbCircle
 10
-52.42580130492661
 20
98.43912329987495
 40
1.350000000000023
100
AcDbArc
 50
-89.9999999999994
 51
6.031274062627011e-13
  0
ARC
  5
93
100
AcDbEntity
  8
s001-#def-active-grp
  6
CONTINUOUS
 62
    7
420
    0
370
   35
100
AcDbCircle
 10
-52.42580130492658
 20
98.43912329987496
 40
1.349999999999994
100
AcDbArc
 50
180
 51
-90.00000000000061
  0
ARC
  5
94
100
AcDbEntity
  8
s001-#def-active-grp
  6
CONTINUOUS
 62
    7
420
    0
370
   35
100
AcDbCircle
 10
-52.42580130492661
 20
98.43912329987496
 40
1.34999999999998
100
AcDbArc
 50
89.9999999999994
 51
180
  0
ARC
  5
95
100
AcDbEntity
  8
s001-#def-active-grp
  6
CONTINUOUS
 62
    7
420
    0
370
   35
100
AcDbCircle
 10
-52.42580130492658
 20
98.43912329987498
 40
1.34999999999998
100
AcDbArc
 50
-6.031274062627139e-13
 51
90.00000000000061
  0
ARC
  5
96
100
AcDbEntity
  8
s001-#def-active-grp
  6
CONTINUOUS
 62
    7
420
    0
370
   35
100
AcDbCircle
 10
7.574198695073395
 20
98.43912329987496
 40
1.350000000000016
100
AcDbArc
 50
-89.9999999999994
 51
0
  0
ARC
  5
97
100
AcDbEntity
  8
s001-#def-active-grp
  6
CONTINUOUS
 62
    7
420
    0
370
   35
100
AcDbCircle
 10
7.574198695073424
 20
98.43912329987496
 40
1.349999999999994
100
AcDbArc
 50
180
 51
-90.00000000000061
  0
ARC
  5
98
100
AcDbEntity
  8
s001-#def-active-grp
  6
CONTINUOUS
 62
    7
420
    0
370
   35
100
AcDbCircle
 10
7.574198695073395
 20
98.43912329987496
 40
1.349999999999987
100
AcDbArc
 50
89.9999999999994
 51
180
  0
ARC
  5
99
100
AcDbEntity
  8
s001-#def-active-grp
  6
CONTINUOUS
 62
    7
420
    0
370
   35
100
AcDbCircle
 10
7.574198695073424
 20
98.43912329987496
 40
1.349999999999994
100
AcDbArc
 50
0
 51
90.00000000000061
  0
ARC
  5
9A
100
AcDbEntity
  8
s001-#def-active-grp
  6
CONTINUOUS
 62
    7
420
    0
370
   35
100
AcDbCircle
 10
-52.42580130492659
 20
38.43912329987496
 40
1.350000000000009
100
AcDbArc
 50
-90
 51
3.015637031313537e-13
  0
ARC
  5
9B
100
AcDbEntity
  8
s001-#def-active-grp
  6
CONTINUOUS
 62
    7
420
    0
370
   35
100
AcDbCircle
 10
-52.42580130492659
 20
38.43912329987496
 40
1.349999999999994
100
AcDbArc
 50
180
 51
-90
  0
ARC
  5
9C
100
AcDbEntity
  8
s001-#def-active-grp
  6
CONTINUOUS
 62
    7
420
    0
370
   35
100
AcDbCircle
 10
-52.42580130492659
 20
38.43912329987496
 40
1.349999999999994
100
AcDbArc
 50
90
 51
180
  0
ARC
  5
9D
100
AcDbEntity
  8
s001-#def-active-grp
  6
CONTINUOUS
 62
    7
420
    0
370
   35
100
AcDbCircle
 10
-52.42580130492659
 20
38.43912329987497
 40
1.349999999999987
100
AcDbArc
 50
-3.015637031313537e-13
 51
90
  0
ARC
  5
9E
100
AcDbEntity
  8
s001-#def-active-grp
  6
CONTINUOUS
 62
    7
420
    0
370
   35
100
AcDbCircle
 10
7.574198695073409
 20
38.43912329987496
 40
1.350000000000001
100
AcDbArc
 50
-90
 51
0
  0
ARC
  5
9F
100
AcDbEntity
  8
s001-#def-active-grp
  6
CONTINUOUS
 62
    7
420
    0
370
   35
100
AcDbCircle
 10
7.574198695073409
 20
38.43912329987496
 40
1.349999999999994
100
AcDbArc
 50
180
 51
-90
  0
ARC
  5
A0
100
AcDbEntity
  8
s001-#def-active-grp
  6
CONTINUOUS
 62
    7
420
    0
370
   35
100
AcDbCircle
 10
7.574198695073409
 20
38.43912329987496
 40
1.350000000000001
100
AcDbArc
 50
90
 51
180
  0
ARC
  5
A1
100
AcDbEntity
  8
s001-#def-active-grp
  6
CONTINUOUS
 62
    7
420
    0
370
   35
100
AcDbCircle
 10
7.574198695073409
 20
38.43912329987496
 40
1.349999999999994
100
AcDbArc
 50
0
 51
90
  0
ARC
  5
A2
100
AcDbEntity
  8
s001-#def-active-grp
  6
CONTINUOUS
 62
    7
420
    0
370
   35
100
AcDbCircle
 10
-64.82580130492659
 20
68.43912329987495
 40
1.349999999999994
100
AcDbArc
 50
-90
 51
6.031274062627139e-13
  0
ARC
  5
A3
100
AcDbEntity
  8
s001-#def-active-grp
  6
CONTINUOUS
 62
    7
420
    0
370
   35
100
AcDbCircle
 10
-64.82580130492659
 20
68.43912329987496
 40
1.349999999999994
100
AcDbArc
 50
180
 51
-90
  0
ARC
  5
A4
100
AcDbEntity
  8
s001-#def-active-grp
  6
CONTINUOUS
 62
    7
420
    0
370
   35
100
AcDbCircle
 10
-64.82580130492659
 20
68.43912329987496
 40
1.350000000000009
100
AcDbArc
 50
90
 51
180
  0
ARC
  5
A5
100
AcDbEntity
  8
s001-#def-active-grp
  6
CONTINUOUS
 62
    7
420
    0
370
   35
100
AcDbCircle
 10
-64.82580130492659
 20
68.43912329987498
 40
1.34999999999998
100
AcDbArc
 50
-6.031274062627139e-13
 51
90
  0
ARC
  5
A6
100
AcDbEntity
  8
s001-#def-active-grp
  6
CONTINUOUS
 62
    7
420
    0
370
   35
100
AcDbCircle
 10
19.97419869507341
 20
68.43912329987496
 40
1.350000000000001
100
AcDbArc
 50
-90
 51
0
  0
ARC
  5
A7
100
AcDbEntity
  8
s001-#def-active-grp
  6
CONTINUOUS
 62
    7
420
    0
370
   35
100
AcDbCircle
 10
19.97419869507341
 20
68.43912329987496
 40
1.349999999999994
100
AcDbArc
 50
180
 51
-90
  0
ARC
  5
A8
100
AcDbEntity
  8
s001-#def-active-grp
  6
CONTINUOUS
 62
    7
420
    0
370
   35
100
AcDbCircle
 10
19.97419869507341
 20
68.43912329987496
 40
1.350000000000001
100
AcDbArc
 50
90
 51
180
  0
ARC
  5
A9
100
AcDbEntity
  8
s001-#def-active-grp
  6
CONTINUOUS
 62
    7
420
    0
370
   35
100
AcDbCircle
 10
19.97419869507341
 20
68.43912329987496
 40
1.349999999999994
100
AcDbArc
 50
0
 51
90
  0
ARC
  5
AA
100
AcDbEntity
  8
s001-#def-active-grp
  6
CONTINUOUS
 62
    7
420
    0
370
   35
100
AcDbCircle
 10
-94.42580130492659
 20
7.439123299874943
 40
8.000000000000014
100
AcDbArc
 50
90
 51
179.9999999999999
  0
ARC
  5
AB
100
AcDbEntity
  8
s001-#def-active-grp
  6
CONTINUOUS
 62
    7
420
    0
370
   35
100
AcDbCircle
 10
-94.42580130492661
 20
-86.56087670012502
 40
7.999999999999986
100
AcDbArc
 50
-179.9999999999999
 51
-89.9999999999999
  0
ARC
  5
AC
100
AcDbEntity
  8
s001-#def-active-grp
  6
CONTINUOUS
 62
    7
420
    0
370
   35
100
AcDbCircle
 10
49.57419869507342
 20
-86.56087670012505
 40
7.999999999999986
100
AcDbArc
 50
-90.0000000000001
 51
1.017777498068327e-13
  0
ARC
  5
AD
100
AcDbEntity
  8
s001-#def-active-grp
  6
CONTINUOUS
 62
    7
420
    0
370
   35
100
AcDbCircle
 10
49.57419869507341
 20
7.439123299874964
 40
8
100
AcDbArc
 50
-5.088887490341627e-14
 51
90
  0
ARC
  5
AE
100
AcDbEntity
  8
s001-#def-active-grp
  6
CONTINUOUS
 62
    7
420
    0
370
   35
100
AcDbCircle
 10
-91.42580130492659
 20
4.439123299874964
 40
2.75
100
AcDbArc
 50
-90
 51
0
  0
ARC
  5
AF
100
AcDbEntity
  8
s001-#def-active-grp
  6
CONTINUOUS
 62
    7
420
    0
370
   35
100
AcDbCircle
 10
-91.42580130492659
 20
4.439123299874964
 40
2.75
100
AcDbArc
 50
180
 51
-90
  0
ARC
  5
B0
100
AcDbEntity
  8
s001-#def-active-grp
  6
CONTINUOUS
 62
    7
420
    0
370
   35
100
AcDbCircle
 10
-91.42580130492659
 20
4.439123299874964
 40
2.75
100
AcDbArc
 50
90
 51
180
  0
ARC
  5
B1
100
AcDbEntity
  8
s001-#def-active-grp
  6
CONTINUOUS
 62
    7
420
    0
370
   35
100
AcDbCircle
 10
-91.42580130492659
 20
4.439123299874964
 40
2.75
100
AcDbArc
 50
0
 51
90
  0
ARC
  5
B2
100
AcDbEntity
  8
s001-#def-active-grp
  6
CONTINUOUS
 62
    7
420
    0
370
   35
100
AcDbCircle
 10
-22.42580130492659
 20
4.439123299874964
 40
2.75
100
AcDbArc
 50
-90
 51
0
  0
ARC
  5
B3
100
AcDbEntity
  8
s001-#def-active-grp
  6
CONTINUOUS
 62
    7
420
    0
370
   35
100
AcDbCircle
 10
-22.42580130492659
 20
4.439123299874964
 40
2.75
100
AcDbArc
 50
180
 51
-90
  0
ARC
  5
B4
100
AcDbEntity
  8
s001-#def-active-grp
  6
CONTINUOUS
 62
    7
420
    0
370
   35
100
AcDbCircle
 10
-22.42580130492659
 20
4.439123299874964
 40
2.75
100
AcDbArc
 50
90
 51
180
  0
ARC
  5
B5
100
AcDbEntity
  8
s001-#def-active-grp
  6
CONTINUOUS
 62
    7
420
    0
370
   35
100
AcDbCircle
 10
-22.42580130492659
 20
4.439123299874964
 40
2.75
100
AcDbArc
 50
0
 51
90
  0
ARC
  5
B6
100
AcDbEntity
  8
s001-#def-active-grp
  6
CONTINUOUS
 62
    7
420
    0
370
   35
100
AcDbCircle
 10
46.57419869507341
 20
4.439123299874964
 40
2.75
100
AcDbArc
 50
-90
 51
0
  0
ARC
  5
B7
100
AcDbEntity
  8
s001-#def-active-grp
  6
CONTINUOUS
 62
    7
420
    0
370
   35
100
AcDbCircle
 10
46.57419869507341
 20
4.439123299874964
 40
2.75
100
AcDbArc
 50
180
 51
-90
  0
ARC
  5
B8
100
AcDbEntity
  8
s001-#def-active-grp
  6
CONTINUOUS
 62
    7
420
    0
370
   35
100
AcDbCircle
 10
46.57419869507341
 20
4.439123299874964
 40
2.75
100
AcDbArc
 50
90
 51
180
  0
ARC
  5
B9
100
AcDbEntity
  8
s001-#def-active-grp
  6
CONTINUOUS
 62
    7
420
    0
370
   35
100
AcDbCircle
 10
46.57419869507341
 20
4.439123299874964
 40
2.75
100
AcDbArc
 50
0
 51
90
  0
ARC
  5
BA
100
AcDbEntity
  8
s001-#def-active-grp
  6
CONTINUOUS
 62
    7
420
    0
370
   35
100
AcDbCircle
 10
46.57419869507341
 20
-39.56087670012504
 40
2.75
100
AcDbArc
 50
-90
 51
0
  0
ARC
  5
BB
100
AcDbEntity
  8
s001-#def-active-grp
  6
CONTINUOUS
 62
    7
420
    0
370
   35
100
AcDbCircle
 10
46.57419869507341
 20
-39.56087670012504
 40
2.75
100
AcDbArc
 50
180
 51
-90
  0
ARC
  5
BC
100
AcDbEntity
  8
s001-#def-active-grp
  6
CONTINUOUS
 62
    7
420
    0
370
   35
100
AcDbCircle
 10
46.57419869507341
 20
-39.56087670012504
 40
2.75
100
AcDbArc
 50
90
 51
180
  0
ARC
  5
BD
100
AcDbEntity
  8
s001-#def-active-grp
  6
CONTINUOUS
 62
    7
420
    0
370
   35
100
AcDbCircle
 10
46.57419869507341
 20
-39.56087670012504
 40
2.75
100
AcDbArc
 50
0
 51
90
  0
ARC
  5
BE
100
AcDbEntity
  8
s001-#def-active-grp
  6
CONTINUOUS
 62
    7
420
    0
370
   35
100
AcDbCircle
 10
-56.92580130492659
 20
4.439123299874957
 40
2.75
100
AcDbArc
 50
-90
 51
1.480403633553928e-13
  0
ARC
  5
BF
100
AcDbEntity
  8
s001-#def-active-grp
  6
CONTINUOUS
 62
    7
420
    0
370
   35
100
AcDbCircle
 10
-56.92580130492659
 20
4.439123299874964
 40
2.75
100
AcDbArc
 50
180
 51
-90
  0
ARC
  5
C0
100
AcDbEntity
  8
s001-#def-active-grp
  6
CONTINUOUS
 62
    7
420
    0
370
   35
100
AcDbCircle
 10
-56.92580130492659
 20
4.439123299874964
 40
2.75
100
AcDbArc
 50
90
 51
180
  0
ARC
  5
C1
100
AcDbEntity
  8
s001-#def-active-grp
  6
CONTINUOUS
 62
    7
420
    0
370
   35
100
AcDbCircle
 10
-56.92580130492659
 20
4.439123299874971
 40
2.749999999999993
100
AcDbArc
 50
-1.480403633553928e-13
 51
90
  0
ARC
  5
C2
100
AcDbEntity
  8
s001-#def-active-grp
  6
CONTINUOUS
 62
    7
420
    0
370
   35
100
AcDbCircle
 10
12.07419869507341
 20
4.439123299874964
 40
2.75
100
AcDbArc
 50
-90
 51
0
  0
ARC
  5
C3
100
AcDbEntity
  8
s001-#def-active-grp
  6
CONTINUOUS
 62
    7
420
    0
370
   35
100
AcDbCircle
 10
12.07419869507341
 20
4.439123299874964
 40
2.75
100
AcDbArc
 50
180
 51
-90
  0
ARC
  5
C4
100
AcDbEntity
  8
s001-#def-active-grp
  6
CONTINUOUS
 62
    7
420
    0
370
   35
100
AcDbCircle
 10
12.07419869507341
 20
4.439123299874964
 40
2.75
100
AcDbArc
 50
90
 51
180
  0
ARC
  5
C5
100
AcDbEntity
  8
s001-#def-active-grp
  6
CONTINUOUS
 62
    7
420
    0
370
   35
100
AcDbCircle
 10
12.07419869507341
 20
4.439123299874964
 40
2.75
100
AcDbArc
 50
0
 51
90
  0
ARC
  5
C6
100
AcDbEntity
  8
s001-#def-active-grp
  6
CONTINUOUS
 62
    7
420
    0
370
   35
100
AcDbCircle
 10
46.57419869507341
 20
-17.56087670012504
 40
2.75
100
AcDbArc
 50
-90
 51
0
  0
ARC
  5
C7
100
AcDbEntity
  8
s001-#def-active-grp
  6
CONTINUOUS
 62
    7
420
    0
370
   35
100
AcDbCircle
 10
46.57419869507341
 20
-17.56087670012504
 40
2.75
100
AcDbArc
 50
180
 51
-90
  0
ARC
  5
C8
100
AcDbEntity
  8
s001-#def-active-grp
  6
CONTINUOUS
 62
    7
420
    0
370
   35
100
AcDbCircle
 10
46.57419869507341
 20
-17.56087670012504
 40
2.75
100
AcDbArc
 50
90
 51
180
  0
ARC
  5
C9
100
AcDbEntity
  8
s001-#def-active-grp
  6
CONTINUOUS
 62
    7
420
    0
370
   35
100
AcDbCircle
 10
46.57419869507341
 20
-17.56087670012504
 40
2.75
100
AcDbArc
 50
0
 51
90
  0
ARC
  5
CA
100
AcDbEntity
  8
s001-#def-active-grp
  6
CONTINUOUS
 62
    7
420
    0
370
   35
100
AcDbCircle
 10
46.57419869507341
 20
-61.56087670012504
 40
2.75
100
AcDbArc
 50
-90
 51
0
  0
ARC
  5
CB
100
AcDbEntity
  8
s001-#def-active-grp
  6
CONTINUOUS
 62
    7
420
    0
370
   35
100
AcDbCircle
 10
46.57419869507341
 20
-61.56087670012504
 40
2.75
100
AcDbArc
 50
180
 51
-90
  0
ARC
  5
CC
100
AcDbEntity
  8
s001-#def-active-grp
  6
CONTINUOUS
 62
    7
420
    0
370
   35
100
AcDbCircle
 10
46.57419869507341
 20
-61.56087670012504
 40
2.750000000000007
100
AcDbArc
 50
90.00000000000016
 51
180
  0
ARC
  5
CD
100
AcDbEntity
  8
s001-#def-active-grp
  6
CONTINUOUS
 62
    7
420
    0
370
   35
100
AcDbCircle
 10
46.5741986950734
 20
-61.56087670012504
 40
2.75
100
AcDbArc
 50
0
 51
89.99999999999986
  0
ARC
  5
CE
100
AcDbEntity
  8
s001-#def-active-grp
  6
CONTINUOUS
 62
    7
420
    0
370
   35
100
AcDbCircle
 10
46.57419869507341
 20
-83.56087670012504
 40
2.75
100
AcDbArc
 50
-90
 51
0
  0
ARC
  5
CF
100
AcDbEntity
  8
s001-#def-active-grp
  6
CONTINUOUS
 62
    7
420
    0
370
   35
100
AcDbCircle
 10
46.57419869507341
 20
-83.56087670012504
 40
2.75
100
AcDbArc
 50
180
 51
-90
  0
ARC
  5
D0
100
AcDbEntity
  8
s001-#def-active-grp
  6
CONTINUOUS
 62
    7
420
    0
370
   35
100
AcDbCircle
 10
46.57419869507341
 20
-83.56087670012504
 40
2.75
100
AcDbArc
 50
90
 51
180
  0
ARC
  5
D1
100
AcDbEntity
  8
s001-#def-active-grp
  6
CONTINUOUS
 62
    7
420
    0
370
   35
100
AcDbCircle
 10
46.57419869507341
 20
-83.56087670012504
 40
2.75
100
AcDbArc
 50
0
 51
90
  0
ARC
  5
D2
100
AcDbEntity
  8
s001-#def-active-grp
  6
CONTINUOUS
 62
    7
420
    0
370
   35
100
AcDbCircle
 10
36.57419869507341
 20
-5.560876700125036
 40
5
100
AcDbArc
 50
0
 51
90
  0
ARC
  5
D3
100
AcDbEntity
  8
s001-#def-active-grp
  6
CONTINUOUS
 62
    7
420
    0
370
   35
100
AcDbCircle
 10
36.57419869507341
 20
-73.56087670012504
 40
5
100
AcDbArc
 50
-90
 51
0
  0
ARC
  5
D4
100
AcDbEntity
  8
s001-#def-active-grp
  6
CONTINUOUS
 62
    7
420
    0
370
   35
100
AcDbCircle
 10
-81.42580130492659
 20
-73.56087670012504
 40
5
100
AcDbArc
 50
180
 51
-90
  0
ARC
  5
D5
100
AcDbEntity
  8
s001-#def-active-grp
  6
CONTINUOUS
 62
    7
420
    0
370
   35
100
AcDbCircle
 10
-81.42580130492659
 20
-5.560876700125036
 40
5
100
AcDbArc
 50
90
 51
180
  0
ARC
  5
D6
100
AcDbEntity
  8
s001-#def-active-grp
  6
CONTINUOUS
 62
    7
420
    0
370
   35
100
AcDbCircle
 10
-91.42580130492659
 20
-17.56087670012504
 40
2.75
100
AcDbArc
 50
-90
 51
0
  0
ARC
  5
D7
100
AcDbEntity
  8
s001-#def-active-grp
  6
CONTINUOUS
 62
    7
420
    0
370
   35
100
AcDbCircle
 10
-91.42580130492659
 20
-17.56087670012504
 40
2.75
100
AcDbArc
 50
180
 51
-90
  0
ARC
  5
D8
100
AcDbEntity
  8
s001-#def-active-grp
  6
CONTINUOUS
 62
    7
420
    0
370
   35
100
AcDbCircle
 10
-91.42580130492659
 20
-17.56087670012504
 40
2.75
100
AcDbArc
 50
90
 51
180
  0
ARC
  5
D9
100
AcDbEntity
  8
s001-#def-active-grp
  6
CONTINUOUS
 62
    7
420
    0
370
   35
100
AcDbCircle
 10
-91.42580130492659
 20
-17.56087670012504
 40
2.75
100
AcDbArc
 50
0
 51
90
  0
ARC
  5
DA
100
AcDbEntity
  8
s001-#def-active-grp
  6
CONTINUOUS
 62
    7
420
    0
370
   35
100
AcDbCircle
 10
-91.42580130492659
 20
-39.56087670012504
 40
2.75
100
AcDbArc
 50
-90
 51
0
  0
ARC
  5
DB
100
AcDbEntity
  8
s001-#def-active-grp
  6
CONTINUOUS
 62
    7
420
    0
370
   35
100
AcDbCircle
 10
-91.42580130492659
 20
-39.56087670012504
 40
2.75
100
AcDbArc
 50
180
 51
-90
  0
ARC
  5
DC
100
AcDbEntity
  8
s001-#def-active-grp
  6
CONTINUOUS
 62
    7
420
    0
370
   35
100
AcDbCircle
 10
-91.42580130492659
 20
-39.56087670012504
 40
2.75
100
AcDbArc
 50
90
 51
180
  0
ARC
  5
DD
100
AcDbEntity
  8
s001-#def-active-grp
  6
CONTINUOUS
 62
    7
420
    0
370
   35
100
AcDbCircle
 10
-91.42580130492659
 20
-39.56087670012504
 40
2.75
100
AcDbArc
 50
0
 51
90
  0
ARC
  5
DE
100
AcDbEntity
  8
s001-#def-active-grp
  6
CONTINUOUS
 62
    7
420
    0
370
   35
100
AcDbCircle
 10
-91.42580130492659
 20
-61.56087670012504
 40
2.75
100
AcDbArc
 50
-90
 51
0
  0
ARC
  5
DF
100
AcDbEntity
  8
s001-#def-active-grp
  6
CONTINUOUS
 62
    7
420
    0
370
   35
100
AcDbCircle
 10
-91.42580130492659
 20
-61.56087670012504
 40
2.75
100
AcDbArc
 50
180
 51
-90
  0
ARC
  5
E0
100
AcDbEntity
  8
s001-#def-active-grp
  6
CONTINUOUS
 62
    7
420
    0
370
   35
100
AcDbCircle
 10
-91.42580130492658
 20
-61.56087670012504
 40
2.750000000000014
100
AcDbArc
 50
90.0000000000003
 51
180
  0
ARC
  5
E1
100
AcDbEntity
  8
s001-#def-active-grp
  6
CONTINUOUS
 62
    7
420
    0
370
   35
100
AcDbCircle
 10
-91.42580130492661
 20
-61.56087670012504
 40
2.75
100
AcDbArc
 50
0
 51
89.9999999999997
  0
ARC
  5
E2
100
AcDbEntity
  8
s001-#def-active-grp
  6
CONTINUOUS
 62
    7
420
    0
370
   35
100
AcDbCircle
 10
-91.42580130492659
 20
-83.56087670012504
 40
2.75
100
AcDbArc
 50
-90
 51
0
  0
ARC
  5
E3
100
AcDbEntity
  8
s001-#def-active-grp
  6
CONTINUOUS
 62
    7
420
    0
370
   35
100
AcDbCircle
 10
-91.42580130492659
 20
-83.56087670012504
 40
2.75
100
AcDbArc
 50
180
 51
-90
  0
ARC
  5
E4
100
AcDbEntity
  8
s001-#def-active-grp
  6
CONTINUOUS
 62
    7
420
    0
370
   35
100
AcDbCircle
 10
-91.42580130492659
 20
-83.56087670012504
 40
2.75
100
AcDbArc
 50
90
 51
180
  0
ARC
  5
E5
100
AcDbEntity
  8
s001-#def-active-grp
  6
CONTINUOUS
 62
    7
420
    0
370
   35
100
AcDbCircle
 10
-91.42580130492659
 20
-83.56087670012504
 40
2.75
100
AcDbArc
 50
0
 51
90
  0
ARC
  5
E6
100
AcDbEntity
  8
s001-#def-active-grp
  6
CONTINUOUS
 62
    7
420
    0
370
   35
100
AcDbCircle
 10
-56.92580130492659
 20
-83.56087670012505
 40
2.75
100
AcDbArc
 50
-90
 51
2.960807267107856e-13
  0
ARC
  5
E7
100
AcDbEntity
  8
s001-#def-active-grp
  6
CONTINUOUS
 62
    7
420
    0
370
   35
100
AcDbCircle
 10
-56.92580130492659
 20
-83.56087670012504
 40
2.75
100
AcDbArc
 50
180
 51
-90
  0
ARC
  5
E8
100
AcDbEntity
  8
s001-#def-active-grp
  6
CONTINUOUS
 62
    7
420
    0
370
   35
100
AcDbCircle
 10
-56.92580130492659
 20
-83.56087670012504
 40
2.75
100
AcDbArc
 50
90
 51
180
  0
ARC
  5
E9
100
AcDbEntity
  8
s001-#def-active-grp
  6
CONTINUOUS
 62
    7
420
    0
370
   35
100
AcDbCircle
 10
-56.92580130492659
 20
-83.56087670012502
 40
2.749999999999986
100
AcDbArc
 50
-2.960807267107856e-13
 51
90
  0
ARC
  5
EA
100
AcDbEntity
  8
s001-#def-active-grp
  6
CONTINUOUS
 62
    7
420
    0
370
   35
100
AcDbCircle
 10
-22.42580130492659
 20
-83.56087670012504
 40
2.75
100
AcDbArc
 50
-90
 51
0
  0
ARC
  5
EB
100
AcDbEntity
  8
s001-#def-active-grp
  6
CONTINUOUS
 62
    7
420
    0
370
   35
100
AcDbCircle
 10
-22.42580130492659
 20
-83.56087670012504
 40
2.75
100
AcDbArc
 50
180
 51
-90
  0
ARC
  5
EC
100
AcDbEntity
  8
s001-#def-active-grp
  6
CONTINUOUS
 62
    7
420
    0
370
   35
100
AcDbCircle
 10
-22.42580130492659
 20
-83.56087670012504
 40
2.75
100
AcDbArc
 50
90
 51
180
  0
ARC
  5
ED
100
AcDbEntity
  8
s001-#def-active-grp
  6
CONTINUOUS
 62
    7
420
    0
370
   35
100
AcDbCircle
 10
-22.42580130492659
 20
-83.56087670012504
 40
2.75
100
AcDbArc
 50
0
 51
90
  0
ARC
  5
EE
100
AcDbEntity
  8
s001-#def-active-grp
  6
CONTINUOUS
 62
    7
420
    0
370
   35
100
AcDbCircle
 10
12.07419869507341
 20
-83.56087670012504
 40
2.75
100
AcDbArc
 50
-90
 51
0
  0
ARC
  5
EF
100
AcDbEntity
  8
s001-#def-active-grp
  6
CONTINUOUS
 62
    7
420
    0
370
   35
100
AcDbCircle
 10
12.07419869507341
 20
-83.56087670012504
 40
2.75
100
AcDbArc
 50
180
 51
-90
  0
ARC
  5
F0
100
AcDbEntity
  8
s001-#def-active-grp
  6
CONTINUOUS
 62
    7
420
    0
370
   35
100
AcDbCircle
 10
12.07419869507341
 20
-83.56087670012504
 40
2.75
100
AcDbArc
 50
90
 51
180
  0
ARC
  5
F1
100
AcDbEntity
  8
s001-#def-active-grp
  6
CONTINUOUS
 62
    7
420
    0
370
   35
100
AcDbCircle
 10
12.07419869507341
 20
-83.56087670012504
 40
2.75
100
AcDbArc
 50
0
 51
90
  0
DIMENSION
  5
F2
100
AcDbEntity
  8
dimensions
  6
CONTINUOUS
 62
    6
420
16718335
370
   20
100
AcDbDimension
 10
-91.42580130492659
 20
4.439123299874964
 30
0
 11
-91.42580130492659
 21
4.439123299874964
 31
0
 70
   35
  1
⌀5.50
 71
    5
  3
STANDARD
 53
0
210
0
220
0
230
1
 42
5.5
100
AcDbDiametricDimension
 15
-91.42580130492659
 25
4.439123299874964
 35
0
 40
0
  0
DIMENSION
  5
F3
100
AcDbEntity
  8
dimensions
  6
CONTINUOUS
 62
    6
420
16718335
370
   20
100
AcDbDimension
 10
-22.42580130492659
 20
4.439123299874964
 30
0
 11
-22.42580130492659
 21
4.439123299874964
 31
0
 70
   35
  1
⌀5.50
 71
    5
  3
STANDARD
 53
0
210
0
220
0
230
1
 42
5.5
100
AcDbDiametricDimension
 15
-22.42580130492659
 25
4.439123299874964
 35
0
 40
0
  0
DIMENSION
  5
F4
100
AcDbEntity
  8
dimensions
  6
CONTINUOUS
 62
    6
420
16718335
370
   20
100
AcDbDimension
 10
46.57419869507341
 20
4.439123299874964
 30
0
 11
46.57419869507341
 21
4.439123299874964
 31
0
 70
   35
  1
⌀5.50
 71
    5
  3
STANDARD
 53
0
210
0
220
0
230
1
 42
5.5
100
AcDbDiametricDimension
 15
46.57419869507341
 25
4.439123299874964
 35
0
 40
0
  0
DIMENSION
  5
F5
100
AcDbEntity
  8
dimensions
  6
CONTINUOUS
 62
    6
420
16718335
370
   20
100
AcDbDimension
 10
46.57419869507341
 20
-39.56087670012504
 30
0
 11
46.57419869507341
 21
-39.56087670012504
 31
0
 70
   35
  1
⌀5.50
 71
    5
  3
STANDARD
 53
0
210
0
220
0
230
1
 42
5.5
100
AcDbDiametricDimension
 15
46.57419869507341
 25
-39.56087670012504
 35
0
 40
0
  0
DIMENSION
  5
F6
100
AcDbEntity
  8
dimensions
  6
CONTINUOUS
 62
    6
420
16718335
370
   20
100
AcDbDimension
 10
-56.92580130492659
 20
4.439123299874964
 30
0
 11
-56.92580130492659
 21
4.439123299874964
 31
0
 70
   35
  1
⌀5.50
 71
    5
  3
STANDARD
 53
0
210
0
220
0
230
1
 42
5.5
100
AcDbDiametricDimension
 15
-56.92580130492659
 25
4.439123299874964
 35
0
 40
0
  0
DIMENSION
  5
F7
100
AcDbEntity
  8
dimensions
  6
CONTINUOUS
 62
    6
420
16718335
370
   20
100
AcDbDimension
 10
12.07419869507341
 20
4.439123299874964
 30
0
 11
12.07419869507341
 21
4.439123299874964
 31
0
 70
   35
  1
⌀5.50
 71
    5
  3
STANDARD
 53
0
210
0
220
0
230
1
 42
5.5
100
AcDbDiametricDimension
 15
12.07419869507341
 25
4.439123299874964
 35
0
 40
0
  0
DIMENSION
  5
F8
100
AcDbEntity
  8
dimensions
  6
CONTINUOUS
 62
    6
420
16718335
370
   20
100
AcDbDimension
 10
46.57419869507341
 20
-17.56087670012504
 30
0
 11
46.57419869507341
 21
-17.56087670012504
 31
0
 70
   35
  1
⌀5.50
 71
    5
  3
STANDARD
 53
0
210
0
220
0
230
1
 42
5.5
100
AcDbDiametricDimension
 15
46.57419869507341
 25
-17.56087670012504
 35
0
 40
0
  0
DIMENSION
  5
F9
100
AcDbEntity
  8
dimensions
  6
CONTINUOUS
 62
    6
420
16718335
370
   20
100
AcDbDimension
 10
46.57419869507341
 20
-61.56087670012504
 30
0
 11
46.57419869507341
 21
-61.56087670012504
 31
0
 70
   35
  1
⌀5.50
 71
    5
  3
STANDARD
 53
0
210
0
220
0
230
1
 42
5.5
100
AcDbDiametricDimension
 15
46.57419869507341
 25
-61.56087670012504
 35
0
 40
0
  0
DIMENSION
  5
FA
100
AcDbEntity
  8
dimensions
  6
CONTINUOUS
 62
    6
420
16718335
370
   20
100
AcDbDimension
 10
46.57419869507341
 20
-83.56087670012504
 30
0
 11
46.57419869507341
 21
-83.56087670012504
 31
0
 70
   35
  1
⌀5.50
 71
    5
  3
STANDARD
 53
0
210
0
220
0
230
1
 42
5.5
100
AcDbDiametricDimension
 15
46.57419869507341
 25
-83.56087670012504
 35
0
 40
0
  0
DIMENSION
  5
FB
100
AcDbEntity
  8
dimensions
  6
CONTINUOUS
 62
    6
420
16718335
370
   20
100
AcDbDimension
 10
-27.24833216912412
 20
-17.56087670012504
 30
0
 11
-27.24833216912412
 21
-17.56087670012504
 31
0
 70
   33
  1
44.00
 71
    5
  3
STANDARD
 53
0
210
0
220
0
230
1
 42
44
100
AcDbAlignedDimension
 13
-22.42580130492659
 23
4.439123299874964
 33
0
 14
-22.42580130492659
 24
-39.56087670012504
 34
0
  0
DIMENSION
  5
FC
100
AcDbEntity
  8
dimensions
  6
CONTINUOUS
 62
    6
420
16718335
370
   20
100
AcDbDimension
 10
12.06750693805938
 20
-34.73835047867991
 30
0
 11
12.06750693805938
 21
-34.73835047867991
 31
0
 70
   33
  1
69.00
 71
    5
  3
STANDARD
 53
0
210
0
220
0
230
1
 42
69
100
AcDbAlignedDimension
 13
46.57419869507341
 23
-39.56087670012504
 33
0
 14
-22.42580130492659
 24
-39.56087670012504
 34
0
  0
DIMENSION
  5
FD
100
AcDbEntity
  8
dimensions
  6
CONTINUOUS
 62
    6
420
16718335
370
   20
100
AcDbDimension
 10
-39.67580130492659
 20
0.4203475797103522
 30
0
 11
-39.67580130492659
 21
0.4203475797103522
 31
0
 70
   33
  1
34.50
 71
    5
  3
STANDARD
 53
0
210
0
220
0
230
1
 42
34.5
100
AcDbAlignedDimension
 13
-56.92580130492659
 23
4.439123299874964
 33
0
 14
-22.42580130492659
 24
4.439123299874964
 34
0
  0
DIMENSION
  5
FE
100
AcDbEntity
  8
dimensions
  6
CONTINUOUS
 62
    6
420
16718335
370
   20
100
AcDbDimension
 10
-5.175801304926591
 20
8.457899020039576
 30
0
 11
-5.175801304926591
 21
8.457899020039576
 31
0
 70
   33
  1
34.50
 71
    5
  3
STANDARD
 53
0
210
0
220
0
230
1
 42
34.5
100
AcDbAlignedDimension
 13
12.07419869507341
 23
4.439123299874964
 33
0
 14
-22.42580130492659
 24
4.439123299874964
 34
0
  0
DIMENSION
  5
FF
100
AcDbEntity
  8
dimensions
  6
CONTINUOUS
 62
    6
420
16718335
370
   20
100
AcDbDimension
 10
-59.42580130492658
 20
68.43912329987496
 30
0
 11
-59.42580130492658
 21
68.43912329987496
 31
0
 70
   32
  1
74.00
 71
    5
  3
STANDARD
 53
0
210
0
220
0
230
1
 42
-74
100
AcDbAlignedDimension
 13
-22.42580130492659
 23
68.43912329987496
 33
0
 14
-96.42580130492659
 24
68.43912329987496
 34
0
100
AcDbRotatedDimension
  0
DIMENSION
  5
100
100
AcDbEntity
  8
dimensions
  6
CONTINUOUS
 62
    6
420
16718335
370
   20
100
AcDbDimension
 10
14.5741986950734
 20
68.43912329987496
 30
0
 11
14.5741986950734
 21
68.43912329987496
 31
0
 70
   32
  1
74.00
 71
    5
  3
STANDARD
 53
0
210
0
220
0
230
1
 42
-74
100
AcDbAlignedDimension
 13
-22.42580130492659
 23
68.43912329987496
 33
0
 14
51.57419869507341
 24
68.43912329987496
 34
0
 50
180
100
AcDbRotatedDimension
  0
DIMENSION
  5
101
100
AcDbEntity
  8
dimensions
  6
CONTINUOUS
 62
    6
420
16718335
370
   20
100
AcDbDimension
 10
-22.42580130492659
 20
92.93912329987496
 30
0
 11
-22.42580130492659
 21
92.93912329987496
 31
0
 70
   32
  1
49.00
 71
    5
  3
STANDARD
 53
0
210
0
220
0
230
1
 42
-49
100
AcDbAlignedDimension
 13
-22.42580130492659
 23
68.43912329987496
 33
0
 14
-22.42580130492659
 24
117.439123299875
 34
0
 50
270
100
AcDbRotatedDimension
  0
DIMENSION
  5
102
100
AcDbEntity
  8
dimensions
  6
CONTINUOUS
 62
    6
420
16718335
370
   20
100
AcDbDimension
 10
-22.42580130492659
 20
43.93912329987496
 30
0
 11
-22.42580130492659
 21
43.93912329987496
 31
0
 70
   32
  1
49.00
 71
    5
  3
STANDARD
 53
0
210
0
220
0
230
1
 42
-49
100
AcDbAlignedDimension
 13
-22.42580130492659
 23
68.43912329987496
 33
0
 14
-22.42580130492659
 24
19.43912329987496
 34
0
 50
90
100
AcDbRotatedDimension
  0
DIMENSION
  5
103
100
AcDbEntity
  8
dimensions
  6
CONTINUOUS
 62
    6
420
16718335
370
   20
100
AcDbDimension
 10
-93.92580130492659
 20
120.7724566332083
 30
0
 11
-93.92580130492659
 21
120.7724566332083
 31
0
 70
   33
  1
5.00
 71
    5
  3
STANDARD
 53
0
210
0
220
0
230
1
 42
5
100
AcDbAlignedDimension
 13
-91.42580130492659
 23
112.439123299875
 33
0
 14
-96.42580130492659
 24
112.439123299875
 34
0
  0
DIMENSION
  5
104
100
AcDbEntity
  8
dimensions
  6
CONTINUOUS
 62
    6
420
16718335
370
   20
100
AcDbDimension
 10
-30.75913463825992
 20
14.43912329987496
 30
0
 11
-30.75913463825992
 21
14.43912329987496
 31
0
 70
   33
  1
108.00
 71
    5
  3
STANDARD
 53
0
210
0
220
0
230
1
 42
108
100
AcDbAlignedDimension
 13
-22.42580130492659
 23
68.43912329987496
 33
0
 14
-22.42580130492659
 24
-39.56087670012504
 34
0
  0
DIMENSION
  5
105
100
AcDbEntity
  8
dimensions
  6
CONTINUOUS
 62
    6
420
16718335
370
   20
100
AcDbDimension
 10
-99.75913463825992
 20
21.93912329987496
 30
0
 11
-99.75913463825992
 21
21.93912329987496
 31
0
 70
   33
  1
5.00
 71
    5
  3
STANDARD
 53
0
210
0
220
0
230
1
 42
5
100
AcDbAlignedDimension
 13
-91.42580130492659
 23
24.43912329987496
 33
0
 14
-91.42580130492659
 24
19.43912329987496
 34
0
  0
DIMENSION
  5
106
100
AcDbEntity
  8
dimensions
  6
CONTINUOUS
 62
    6
420
16718335
370
   20
100
AcDbDimension
 10
38.24086536174008
 20
114.939123299875
 30
0
 11
38.24086536174008
 21
114.939123299875
 31
0
 70
   33
  1
5.00
 71
    5
  3
STANDARD
 53
0
210
0
220
0
230
1
 42
5
100
AcDbAlignedDimension
 13
46.57419869507341
 23
117.439123299875
 33
0
 14
46.57419869507341
 24
112.439123299875
 34
0
  0
DIMENSION
  5
107
100
AcDbEntity
  8
dimensions
  6
CONTINUOUS
 62
    6
420
16718335
370
   20
100
AcDbDimension
 10
38.24086536174008
 20
21.93912329987496
 30
0
 11
38.24086536174008
 21
21.93912329987496
 31
0
 70
   33
  1
5.00
 71
    5
  3
STANDARD
 53
0
210
0
220
0
230
1
 42
5
100
AcDbAlignedDimension
 13
46.57419869507341
 23
24.43912329987496
 33
0
 14
46.57419869507341
 24
19.43912329987496
 34
0
  0
DIMENSION
  5
108
100
AcDbEntity
  8
dimensions
  6
CONTINUOUS
 62
    6
420
16718335
370
   20
100
AcDbDimension
 10
-56.92580130492659
 20
112.439123299875
 30
0
 11
-56.92580130492659
 21
112.439123299875
 31
0
 70
   35
  1
⌀4.20
 71
    5
  3
STANDARD
 53
0
210
0
220
0
230
1
 42
4.2
100
AcDbDiametricDimension
 15
-56.92580130492659
 25
112.439123299875
 35
0
 40
0
  0
DIMENSION
  5
109
100
AcDbEntity
  8
dimensions
  6
CONTINUOUS
 62
    6
420
16718335
370
   20
100
AcDbDimension
 10
-22.42580130492659
 20
112.439123299875
 30
0
 11
-22.42580130492659
 21
112.439123299875
 31
0
 70
   35
  1
⌀4.20
 71
    5
  3
STANDARD
 53
0
210
0
220
0
230
1
 42
4.2
100
AcDbDiametricDimension
 15
-22.42580130492659
 25
112.439123299875
 35
0
 40
0
  0
DIMENSION
  5
10A
100
AcDbEntity
  8
dimensions
  6
CONTINUOUS
 62
    6
420
16718335
370
   20
100
AcDbDimension
 10
-91.42580130492659
 20
112.439123299875
 30
0
 11
-91.42580130492659
 21
112.439123299875
 31
0
 70
   35
  1
⌀4.20
 71
    5
  3
STANDARD
 53
0
210
0
220
0
230
1
 42
4.2
100
AcDbDiametricDimension
 15
-91.42580130492659
 25
112.439123299875
 35
0
 40
0
  0
DIMENSION
  5
10B
100
AcDbEntity
  8
dimensions
  6
CONTINUOUS
 62
    6
420
16718335
370
   20
100
AcDbDimension
 10
-91.42580130492659
 20
68.43912329987496
 30
0
 11
-91.42580130492659
 21
68.43912329987496
 31
0
 70
   35
  1
⌀4.20
 71
    5
  3
STANDARD
 53
0
210
0
220
0
230
1
 42
4.2
100
AcDbDiametricDimension
 15
-91.42580130492659
 25
68.43912329987496
 35
0
 40
0
  0
DIMENSION
  5
10C
100
AcDbEntity
  8
dimensions
  6
CONTINUOUS
 62
    6
420
16718335
370
   20
100
AcDbDimension
 10
-91.42580130492659
 20
24.43912329987496
 30
0
 11
-91.42580130492659
 21
24.43912329987496
 31
0
 70
   35
  1
⌀4.20
 71
    5
  3
STANDARD
 53
0
210
0
220
0
230
1
 42
4.2
100
AcDbDiametricDimension
 15
-91.42580130492659
 25
24.43912329987496
 35
0
 40
0
  0
DIMENSION
  5
10D
100
AcDbEntity
  8
dimensions
  6
CONTINUOUS
 62
    6
420
16718335
370
   20
100
AcDbDimension
 10
-91.42580130492659
 20
90.43912329987496
 30
0
 11
-91.42580130492659
 21
90.43912329987496
 31
0
 70
   35
  1
⌀4.20
 71
    5
  3
STANDARD
 53
0
210
0
220
0
230
1
 42
4.2
100
AcDbDiametricDimension
 15
-91.42580130492659
 25
90.43912329987496
 35
0
 40
0
  0
DIMENSION
  5
10E
100
AcDbEntity
  8
dimensions
  6
CONTINUOUS
 62
    6
420
16718335
370
   20
100
AcDbDimension
 10
-91.42580130492659
 20
46.43912329987496
 30
0
 11
-91.42580130492659
 21
46.43912329987496
 31
0
 70
   35
  1
⌀4.20
 71
    5
  3
STANDARD
 53
0
210
0
220
0
230
1
 42
4.2
100
AcDbDiametricDimension
 15
-91.42580130492659
 25
46.43912329987496
 35
0
 40
0
  0
DIMENSION
  5
10F
100
AcDbEntity
  8
dimensions
  6
CONTINUOUS
 62
    6
420
16718335
370
   20
100
AcDbDimension
 10
-56.92580130492659
 20
24.43912329987496
 30
0
 11
-56.92580130492659
 21
24.43912329987496
 31
0
 70
   35
  1
⌀4.20
 71
    5
  3
STANDARD
 53
0
210
0
220
0
230
1
 42
4.2
100
AcDbDiametricDimension
 15
-56.92580130492659
 25
24.43912329987496
 35
0
 40
0
  0
DIMENSION
  5
110
100
AcDbEntity
  8
dimensions
  6
CONTINUOUS
 62
    6
420
16718335
370
   20
100
AcDbDimension
 10
-22.42580130492659
 20
24.43912329987496
 30
0
 11
-22.42580130492659
 21
24.43912329987496
 31
0
 70
   35
  1
⌀4.20
 71
    5
  3
STANDARD
 53
0
210
0
220
0
230
1
 42
4.2
100
AcDbDiametricDimension
 15
-22.42580130492659
 25
24.43912329987496
 35
0
 40
0
  0
DIMENSION
  5
111
100
AcDbEntity
  8
dimensions
  6
CONTINUOUS
 62
    6
420
16718335
370
   20
100
AcDbDimension
 10
12.07419869507341
 20
112.439123299875
 30
0
 11
12.07419869507341
 21
112.439123299875
 31
0
 70
   35
  1
⌀4.20
 71
    5
  3
STANDARD
 53
0
210
0
220
0
230
1
 42
4.2
100
AcDbDiametricDimension
 15
12.07419869507341
 25
112.439123299875
 35
0
 40
0
  0
DIMENSION
  5
112
100
AcDbEntity
  8
dimensions
  6
CONTINUOUS
 62
    6
420
16718335
370
   20
100
AcDbDimension
 10
46.57419869507341
 20
112.439123299875
 30
0
 11
46.57419869507341
 21
112.439123299875
 31
0
 70
   35
  1
⌀4.20
 71
    5
  3
STANDARD
 53
0
210
0
220
0
230
1
 42
4.2
100
AcDbDiametricDimension
 15
46.57419869507341
 25
112.439123299875
 35
0
 40
0
  0
DIMENSION
  5
113
100
AcDbEntity
  8
dimensions
  6
CONTINUOUS
 62
    6
420
16718335
370
   20
100
AcDbDimension
 10
46.57419869507341
 20
90.43912329987496
 30
0
 11
46.57419869507341
 21
90.43912329987496
 31
0
 70
   35
  1
⌀4.20
 71
    5
  3
STANDARD
 53
0
210
0
220
0
230
1
 42
4.2
100
AcDbDiametricDimension
 15
46.57419869507341
 25
90.43912329987496
 35
0
 40
0
  0
DIMENSION
  5
114
100
AcDbEntity
  8
dimensions
  6
CONTINUOUS
 62
    6
420
16718335
370
   20
100
AcDbDimension
 10
46.57419869507341
 20
68.43912329987496
 30
0
 11
46.57419869507341
 21
68.43912329987496
 31
0
 70
   35
  1
⌀4.20
 71
    5
  3
STANDARD
 53
0
210
0
220
0
230
1
 42
4.2
100
AcDbDiametricDimension
 15
46.57419869507341
 25
68.43912329987496
 35
0
 40
0
  0
DIMENSION
  5
115
100
AcDbEntity
  8
dimensions
  6
CONTINUOUS
 62
    6
420
16718335
370
   20
100
AcDbDimension
 10
46.57419869507341
 20
46.43912329987496
 30
0
 11
46.57419869507341
 21
46.43912329987496
 31
0
 70
   35
  1
⌀4.20
 71
    5
  3
STANDARD
 53
0
210
0
220
0
230
1
 42
4.2
100
AcDbDiametricDimension
 15
46.57419869507341
 25
46.43912329987496
 35
0
 40
0
  0
DIMENSION
  5
116
100
AcDbEntity
  8
dimensions
  6
CONTINUOUS
 62
    6
420
16718335
370
   20
100
AcDbDimension
 10
46.57419869507341
 20
24.43912329987496
 30
0
 11
46.57419869507341
 21
24.43912329987496
 31
0
 70
   35
  1
⌀4.20
 71
    5
  3
STANDARD
 53
0
210
0
220
0
230
1
 42
4.2
100
AcDbDiametricDimension
 15
46.57419869507341
 25
24.43912329987496
 35
0
 40
0
  0
DIMENSION
  5
117
100
AcDbEntity
  8
dimensions
  6
CONTINUOUS
 62
    6
420
16718335
370
   20
100
AcDbDimension
 10
12.07419869507341
 20
24.43912329987496
 30
0
 11
12.07419869507341
 21
24.43912329987496
 31
0
 70
   35
  1
⌀4.20
 71
    5
  3
STANDARD
 53
0
210
0
220
0
230
1
 42
4.2
100
AcDbDiametricDimension
 15
12.07419869507341
 25
24.43912329987496
 35
0
 40
0
  0
DIMENSION
  5
118
100
AcDbEntity
  8
dimensions
  6
CONTINUOUS
 62
    6
420
16718335
370
   20
100
AcDbDimension
 10
-17.60327044072906
 20
46.43912329987496
 30
0
 11
-17.60327044072906
 21
46.43912329987496
 31
0
 70
   33
  1
44.00
 71
    5
  3
STANDARD
 53
0
210
0
220
0
230
1
 42
44
100
AcDbAlignedDimension
 13
-22.42580130492659
 23
24.43912329987496
 33
0
 14
-22.42580130492659
 24
68.43912329987496
 34
0
  0
DIMENSION
  5
119
100
AcDbEntity
  8
dimensions
  6
CONTINUOUS
 62
    6
420
16718335
370
   20
100
AcDbDimension
 10
-27.24833216912412
 20
90.43912329987496
 30
0
 11
-27.24833216912412
 21
90.43912329987496
 31
0
 70
   33
  1
44.00
 71
    5
  3
STANDARD
 53
0
210
0
220
0
230
1
 42
44
100
AcDbAlignedDimension
 13
-22.42580130492659
 23
112.439123299875
 33
0
 14
-22.42580130492659
 24
68.43912329987496
 34
0
  0
DIMENSION
  5
11A
100
AcDbEntity
  8
dimensions
  6
CONTINUOUS
 62
    6
420
16718335
370
   20
100
AcDbDimension
 10
-56.92580130492659
 20
63.61659243567743
 30
0
 11
-56.92580130492659
 21
63.61659243567743
 31
0
 70
   33
  1
69.00
 71
    5
  3
STANDARD
 53
0
210
0
220
0
230
1
 42
69
100
AcDbAlignedDimension
 13
-91.42580130492659
 23
68.43912329987496
 33
0
 14
-22.42580130492659
 24
68.43912329987496
 34
0
  0
DIMENSION
  5
11B
100
AcDbEntity
  8
dimensions
  6
CONTINUOUS
 62
    6
420
16718335
370
   20
100
AcDbDimension
 10
12.07419869507341
 20
63.61659243567743
 30
0
 11
12.07419869507341
 21
63.61659243567743
 31
0
 70
   33
  1
69.00
 71
    5
  3
STANDARD
 53
0
210
0
220
0
230
1
 42
69
100
AcDbAlignedDimension
 13
-22.42580130492659
 23
68.43912329987496
 33
0
 14
46.57419869507341
 24
68.43912329987496
 34
0
  0
DIMENSION
  5
11C
100
AcDbEntity
  8
dimensions
  6
CONTINUOUS
 62
    6
420
16718335
370
   20
100
AcDbDimension
 10
-86.60327044072906
 20
57.43912329987496
 30
0
 11
-86.60327044072906
 21
57.43912329987496
 31
0
 70
   33
  1
22.00
 71
    5
  3
STANDARD
 53
0
210
0
220
0
230
1
 42
22
100
AcDbAlignedDimension
 13
-91.42580130492659
 23
46.43912329987496
 33
0
 14
-91.42580130492659
 24
68.43912329987496
 34
0
  0
DIMENSION
  5
11D
100
AcDbEntity
  8
dimensions
  6
CONTINUOUS
 62
    6
420
16718335
370
   20
100
AcDbDimension
 10
-86.60327044072906
 20
79.43912329987496
 30
0
 11
-86.60327044072906
 21
79.43912329987496
 31
0
 70
   33
  1
22.00
 71
    5
  3
STANDARD
 53
0
210
0
220
0
230
1
 42
22
100
AcDbAlignedDimension
 13
-91.42580130492659
 23
68.43912329987496
 33
0
 14
-91.42580130492659
 24
90.43912329987496
 34
0
  0
DIMENSION
  5
11E
100
AcDbEntity
  8
dimensions
  6
CONTINUOUS
 62
    6
420
16718335
370
   20
100
AcDbDimension
 10
-22.42580130492659
 20
68.43912329987496
 30
0
 11
-22.42580130492659
 21
68.43912329987496
 31
0
 70
   35
  1
⌀70.00
 71
    5
  3
STANDARD
 53
0
210
0
220
0
230
1
 42
70
100
AcDbDiametricDimension
 15
-22.42580130492659
 25
68.43912329987496
 35
0
 40
0
  0
DIMENSION
  5
11F
100
AcDbEntity
  8
dimensions
  6
CONTINUOUS
 62
    6
420
16718335
370
   20
100
AcDbDimension
 10
-52.42580130492659
 20
98.43912329987496
 30
0
 11
-52.42580130492659
 21
98.43912329987496
 31
0
 70
   35
  1
⌀2.70
 71
    5
  3
STANDARD
 53
0
210
0
220
0
230
1
 42
2.7
100
AcDbDiametricDimension
 15
-52.42580130492659
 25
98.43912329987496
 35
0
 40
0
  0
DIMENSION
  5
120
100
AcDbEntity
  8
dimensions
  6
CONTINUOUS
 62
    6
420
16718335
370
   20
100
AcDbDimension
 10
7.574198695073409
 20
98.43912329987496
 30
0
 11
7.574198695073409
 21
98.43912329987496
 31
0
 70
   35
  1
⌀2.70
 71
    5
  3
STANDARD
 53
0
210
0
220
0
230
1
 42
2.7
100
AcDbDiametricDimension
 15
7.574198695073409
 25
98.43912329987496
 35
0
 40
0
  0
DIMENSION
  5
121
100
AcDbEntity
  8
dimensions
  6
CONTINUOUS
 62
    6
420
16718335
370
   20
100
AcDbDimension
 10
-39.67580130492659
 20
102.439123299875
 30
0
 11
-39.67580130492659
 21
102.439123299875
 31
0
 70
   33
  1
34.50
 71
    5
  3
STANDARD
 53
0
210
0
220
0
230
1
 42
34.5
100
AcDbAlignedDimension
 13
-56.92580130492659
 23
112.439123299875
 33
0
 14
-22.42580130492659
 24
112.439123299875
 34
0
  0
DIMENSION
  5
122
100
AcDbEntity
  8
dimensions
  6
CONTINUOUS
 62
    6
420
16718335
370
   20
100
AcDbDimension
 10
-5.175801304926591
 20
102.439123299875
 30
0
 11
-5.175801304926591
 21
102.439123299875
 31
0
 70
   33
  1
34.50
 71
    5
  3
STANDARD
 53
0
210
0
220
0
230
1
 42
34.5
100
AcDbAlignedDimension
 13
-22.42580130492659
 23
112.439123299875
 33
0
 14
12.07419869507341
 24
112.439123299875
 34
0
  0
DIMENSION
  5
123
100
AcDbEntity
  8
dimensions
  6
CONTINUOUS
 62
    6
420
16718335
370
   20
100
AcDbDimension
 10
-52.42580130492659
 20
107.939123299875
 30
0
 11
-52.42580130492659
 21
107.939123299875
 31
0
 70
   32
  1
19.00
 71
    5
  3
STANDARD
 53
0
210
0
220
0
230
1
 42
-19
100
AcDbAlignedDimension
 13
-52.42580130492659
 23
98.43912329987496
 33
0
 14
-52.42580130492659
 24
117.439123299875
 34
0
 50
270
100
AcDbRotatedDimension
  0
DIMENSION
  5
124
100
AcDbEntity
  8
dimensions
  6
CONTINUOUS
 62
    6
420
16718335
370
   20
100
AcDbDimension
 10
-74.42580130492659
 20
98.43912329987496
 30
0
 11
-74.42580130492659
 21
98.43912329987496
 31
0
 70
   32
  1
44.00
 71
    5
  3
STANDARD
 53
0
210
0
220
0
230
1
 42
-44
100
AcDbAlignedDimension
 13
-52.42580130492659
 23
98.43912329987496
 33
0
 14
-96.42580130492659
 24
98.43912329987496
 34
0
100
AcDbRotatedDimension
  0
DIMENSION
  5
125
100
AcDbEntity
  8
dimensions
  6
CONTINUOUS
 62
    6
420
16718335
370
   20
100
AcDbDimension
 10
29.57419869507341
 20
98.43912329987496
 30
0
 11
29.57419869507341
 21
98.43912329987496
 31
0
 70
   32
  1
44.00
 71
    5
  3
STANDARD
 53
0
210
0
220
0
230
1
 42
-44
100
AcDbAlignedDimension
 13
7.574198695073409
 23
98.43912329987496
 33
0
 14
51.57419869507341
 24
98.43912329987496
 34
0
 50
180
100
AcDbRotatedDimension
  0
DIMENSION
  5
126
100
AcDbEntity
  8
dimensions
  6
CONTINUOUS
 62
    6
420
16718335
370
   20
100
AcDbDimension
 10
-22.42580130492659
 20
-20.06087670012504
 30
0
 11
-22.42580130492659
 21
-20.06087670012504
 31
0
 70
   32
  1
39.00
 71
    5
  3
STANDARD
 53
0
210
0
220
0
230
1
 42
-39
100
AcDbAlignedDimension
 13
-22.42580130492659
 23
-39.56087670012504
 33
0
 14
-22.42580130492659
 24
-0.5608767001250357
 34
0
 50
270
100
AcDbRotatedDimension
  0
DIMENSION
  5
127
100
AcDbEntity
  8
dimensions
  6
CONTINUOUS
 62
    6
420
16718335
370
   20
100
AcDbDimension
 10
-22.42580130492659
 20
-59.06087670012504
 30
0
 11
-22.42580130492659
 21
-59.06087670012504
 31
0
 70
   32
  1
39.00
 71
    5
  3
STANDARD
 53
0
210
0
220
0
230
1
 42
-39
100
AcDbAlignedDimension
 13
-22.42580130492659
 23
-39.56087670012504
 33
0
 14
-22.42580130492659
 24
-78.56087670012504
 34
0
 50
90
100
AcDbRotatedDimension
  0
DIMENSION
  5
128
100
AcDbEntity
  8
dimensions
  6
CONTINUOUS
 62
    6
420
16718335
370
   20
100
AcDbDimension
 10
-54.42580130492659
 20
-39.56087670012504
 30
0
 11
-54.42580130492659
 21
-39.56087670012504
 31
0
 70
   32
  1
64.00
 71
    5
  3
STANDARD
 53
0
210
0
220
0
230
1
 42
-64
100
AcDbAlignedDimension
 13
-22.42580130492659
 23
-39.56087670012504
 33
0
 14
-86.42580130492659
 24
-39.56087670012504
 34
0
100
AcDbRotatedDimension
  0
DIMENSION
  5
129
100
AcDbEntity
  8
dimensions
  6
CONTINUOUS
 62
    6
420
16718335
370
   20
100
AcDbDimension
 10
9.574198695073409
 20
-39.56087670012504
 30
0
 11
9.574198695073409
 21
-39.56087670012504
 31
0
 70
   32
  1
64.00
 71
    5
  3
STANDARD
 53
0
210
0
220
0
230
1
 42
-64
100
AcDbAlignedDimension
 13
-22.42580130492659
 23
-39.56087670012504
 33
0
 14
41.57419869507341
 24
-39.56087670012504
 34
0
 50
180
100
AcDbRotatedDimension
  0
DIMENSION
  5
12A
100
AcDbEntity
  8
dimensions
  6
CONTINUOUS
 62
    6
420
16718335
370
   20
100
AcDbDimension
 10
-73.47401750012442
 20
-3.060876700125036
 30
0
 11
-73.47401750012442
 21
-3.060876700125036
 31
0
 70
   33
  1
5.00
 71
    5
  3
STANDARD
 53
0
210
0
220
0
230
1
 42
5
100
AcDbAlignedDimension
 13
-81.42580130492659
 23
-5.560876700125036
 33
0
 14
-81.42580130492659
 24
-0.5608767001250357
 34
0
  0
DIMENSION
  5
12B
100
AcDbEntity
  8
dimensions
  6
CONTINUOUS
 62
    6
420
16718335
370
   20
100
AcDbDimension
 10
44.52598249987558
 20
-3.060876700125036
 30
0
 11
44.52598249987558
 21
-3.060876700125036
 31
0
 70
   33
  1
5.00
 71
    5
  3
STANDARD
 53
0
210
0
220
0
230
1
 42
5
100
AcDbAlignedDimension
 13
36.57419869507341
 23
-5.560876700125036
 33
0
 14
36.57419869507341
 24
-0.5608767001250357
 34
0
  0
DIMENSION
  5
12C
100
AcDbEntity
  8
dimensions
  6
CONTINUOUS
 62
    6
420
16718335
370
   20
100
AcDbDimension
 10
28.62241489027123
 20
-76.06087670012504
 30
0
 11
28.62241489027123
 21
-76.06087670012504
 31
0
 70
   33
  1
5.00
 71
    5
  3
STANDARD
 53
0
210
0
220
0
230
1
 42
5
100
AcDbAlignedDimension
 13
36.57419869507341
 23
-73.56087670012504
 33
0
 14
36.57419869507341
 24
-78.56087670012504
 34
0
  0
DIMENSION
  5
12D
100
AcDbEntity
  8
dimensions
  6
CONTINUOUS
 62
    6
420
16718335
370
   20
100
AcDbDimension
 10
-89.37758510972877
 20
-76.06087670012505
 30
0
 11
-89.37758510972877
 21
-76.06087670012505
 31
0
 70
   33
  1
5.00
 71
    5
  3
STANDARD
 53
0
210
0
220
0
230
1
 42
5
100
AcDbAlignedDimension
 13
-81.42580130492659
 23
-73.56087670012504
 33
0
 14
-81.42580130492659
 24
-78.56087670012504
 34
0
  0
DIMENSION
  5
12E
100
AcDbEntity
  8
dimensions
  6
CONTINUOUS
 62
    6
420
16718335
370
   20
100
AcDbDimension
 10
-62.42580130492659
 20
-39.56087670012504
 30
0
 11
-62.42580130492659
 21
-39.56087670012504
 31
0
 70
   32
  1
80.00
 71
    5
  3
STANDARD
 53
0
210
0
220
0
230
1
 42
-80
100
AcDbAlignedDimension
 13
-22.42580130492659
 23
-39.56087670012504
 33
0
 14
-102.4258013049266
 24
-39.56087670012504
 34
0
100
AcDbRotatedDimension
  0
DIMENSION
  5
12F
100
AcDbEntity
  8
dimensions
  6
CONTINUOUS
 62
    6
420
16718335
370
   20
100
AcDbDimension
 10
17.57419869507341
 20
-39.56087670012504
 30
0
 11
17.57419869507341
 21
-39.56087670012504
 31
0
 70
   32
  1
80.00
 71
    5
  3
STANDARD
 53
0
210
0
220
0
230
1
 42
-80
100
AcDbAlignedDimension
 13
-22.42580130492659
 23
-39.56087670012504
 33
0
 14
57.57419869507341
 24
-39.56087670012504
 34
0
 50
180
100
AcDbRotatedDimension
  0
DIMENSION
  5
130
100
AcDbEntity
  8
dimensions
  6
CONTINUOUS
 62
    6
420
16718335
370
   20
100
AcDbDimension
 10
-22.42580130492659
 20
-12.06087670012504
 30
0
 11
-22.42580130492659
 21
-12.06087670012504
 31
0
 70
   32
  1
55.00
 71
    5
  3
STANDARD
 53
0
210
0
220
0
230
1
 42
-55
100
AcDbAlignedDimension
 13
-22.42580130492659
 23
-39.56087670012504
 33
0
 14
-22.42580130492659
 24
15.43912329987496
 34
0
 50
270
100
AcDbRotatedDimension
  0
DIMENSION
  5
131
100
AcDbEntity
  8
dimensions
  6
CONTINUOUS
 62
    6
420
16718335
370
   20
100
AcDbDimension
 10
-22.42580130492659
 20
-67.06087670012504
 30
0
 11
-22.42580130492659
 21
-67.06087670012504
 31
0
 70
   32
  1
55.00
 71
    5
  3
STANDARD
 53
0
210
0
220
0
230
1
 42
-55
100
AcDbAlignedDimension
 13
-22.42580130492659
 23
-39.56087670012504
 33
0
 14
-22.42580130492659
 24
-94.56087670012504
 34
0
 50
90
100
AcDbRotatedDimension
  0
DIMENSION
  5
132
100
AcDbEntity
  8
dimensions
  6
CONTINUOUS
 62
    6
420
16718335
370
   20
100
AcDbDimension
 10
-103.9679418706892
 20
11.43912329987496
 30
0
 11
-103.9679418706892
 21
11.43912329987496
 31
0
 70
   33
  1
8.00
 71
    5
  3
STANDARD
 53
0
210
0
220
0
230
1
 42
8
100
AcDbAlignedDimension
 13
-94.42580130492659
 23
15.43912329987496
 33
0
 14
-94.42580130492659
 24
7.439123299874957
 34
0
  0
DIMENSION
  5
133
100
AcDbEntity
  8
dimensions
  6
CONTINUOUS
 62
    6
420
16718335
370
   20
100
AcDbDimension
 10
40.0320581293108
 20
11.43912329987496
 30
0
 11
40.0320581293108
 21
11.43912329987496
 31
0
 70
   33
  1
8.00
 71
    5
  3
STANDARD
 53
0
210
0
220
0
230
1
 42
8
100
AcDbAlignedDimension
 13
49.57419869507341
 23
15.43912329987496
 33
0
 14
49.57419869507341
 24
7.439123299874957
 34
0
  0
DIMENSION
  5
134
100
AcDbEntity
  8
dimensions
  6
CONTINUOUS
 62
    6
420
16718335
370
   20
100
AcDbDimension
 10
-103.9679418706892
 20
-90.56087670012504
 30
0
 11
-103.9679418706892
 21
-90.56087670012504
 31
0
 70
   33
  1
8.00
 71
    5
  3
STANDARD
 53
0
210
0
220
0
230
1
 42
8
100
AcDbAlignedDimension
 13
-94.42580130492659
 23
-86.56087670012504
 33
0
 14
-94.42580130492659
 24
-94.56087670012504
 34
0
  0
DIMENSION
  5
135
100
AcDbEntity
  8
dimensions
  6
CONTINUOUS
 62
    6
420
16718335
370
   20
100
AcDbDimension
 10
59.11633926083601
 20
-90.56087670012504
 30
0
 11
59.11633926083601
 21
-90.56087670012504
 31
0
 70
   33
  1
8.00
 71
    5
  3
STANDARD
 53
0
210
0
220
0
230
1
 42
8
100
AcDbAlignedDimension
 13
49.57419869507341
 23
-94.56087670012504
 33
0
 14
49.57419869507341
 24
-86.56087670012504
 34
0
  0
DIMENSION
  5
136
100
AcDbEntity
  8
dimensions
  6
CONTINUOUS
 62
    6
420
16718335
370
   20
100
AcDbDimension
 10
-91.42580130492659
 20
-17.56087670012504
 30
0
 11
-91.42580130492659
 21
-17.56087670012504
 31
0
 70
   35
  1
⌀5.50
 71
    5
  3
STANDARD
 53
0
210
0
220
0
230
1
 42
5.5
100
AcDbDiametricDimension
 15
-91.42580130492659
 25
-17.56087670012504
 35
0
 40
0
  0
DIMENSION
  5
137
100
AcDbEntity
  8
dimensions
  6
CONTINUOUS
 62
    6
420
16718335
370
   20
100
AcDbDimension
 10
-91.42580130492659
 20
-39.56087670012504
 30
0
 11
-91.42580130492659
 21
-39.56087670012504
 31
0
 70
   35
  1
⌀5.50
 71
    5
  3
STANDARD
 53
0
210
0
220
0
230
1
 42
5.5
100
AcDbDiametricDimension
 15
-91.42580130492659
 25
-39.56087670012504
 35
0
 40
0
  0
DIMENSION
  5
138
100
AcDbEntity
  8
dimensions
  6
CONTINUOUS
 62
    6
420
16718335
370
   20
100
AcDbDimension
 10
-91.42580130492659
 20
-61.56087670012504
 30
0
 11
-91.42580130492659
 21
-61.56087670012504
 31
0
 70
   35
  1
⌀5.50
 71
    5
  3
STANDARD
 53
0
210
0
220
0
230
1
 42
5.5
100
AcDbDiametricDimension
 15
-91.42580130492659
 25
-61.56087670012504
 35
0
 40
0
  0
DIMENSION
  5
139
100
AcDbEntity
  8
dimensions
  6
CONTINUOUS
 62
    6
420
16718335
370
   20
100
AcDbDimension
 10
-91.42580130492659
 20
-83.56087670012504
 30
0
 11
-91.42580130492659
 21
-83.56087670012504
 31
0
 70
   35
  1
⌀5.50
 71
    5
  3
STANDARD
 53
0
210
0
220
0
230
1
 42
5.5
100
AcDbDiametricDimension
 15
-91.42580130492659
 25
-83.56087670012504
 35
0
 40
0
  0
DIMENSION
  5
13A
100
AcDbEntity
  8
dimensions
  6
CONTINUOUS
 62
    6
420
16718335
370
   20
100
AcDbDimension
 10
-56.92580130492659
 20
-83.56087670012504
 30
0
 11
-56.92580130492659
 21
-83.56087670012504
 31
0
 70
   35
  1
⌀5.50
 71
    5
  3
STANDARD
 53
0
210
0
220
0
230
1
 42
5.5
100
AcDbDiametricDimension
 15
-56.92580130492659
 25
-83.56087670012504
 35
0
 40
0
  0
DIMENSION
  5
13B
100
AcDbEntity
  8
dimensions
  6
CONTINUOUS
 62
    6
420
16718335
370
   20
100
AcDbDimension
 10
-22.42580130492659
 20
-83.56087670012504
 30
0
 11
-22.42580130492659
 21
-83.56087670012504
 31
0
 70
   35
  1
⌀5.50
 71
    5
  3
STANDARD
 53
0
210
0
220
0
230
1
 42
5.5
100
AcDbDiametricDimension
 15
-22.42580130492659
 25
-83.56087670012504
 35
0
 40
0
  0
DIMENSION
  5
13C
100
AcDbEntity
  8
dimensions
  6
CONTINUOUS
 62
    6
420
16718335
370
   20
100
AcDbDimension
 10
12.07419869507341
 20
-83.56087670012504
 30
0
 11
12.07419869507341
 21
-83.56087670012504
 31
0
 70
   35
  1
⌀5.50
 71
    5
  3
STANDARD
 53
0
210
0
220
0
230
1
 42
5.5
100
AcDbDiametricDimension
 15
12.07419869507341
 25
-83.56087670012504
 35
0
 40
0
  0
DIMENSION
  5
13D
100
AcDbEntity
  8
dimensions
  6
CONTINUOUS
 62
    6
420
16718335
370
   20
100
AcDbDimension
 10
-102.8763699838417
 20
-28.56087670012504
 30
0
 11
-102.8763699838417
 21
-28.56087670012504
 31
0
 70
   33
  1
22.00
 71
    5
  3
STANDARD
 53
0
210
0
220
0
230
1
 42
22
100
AcDbAlignedDimension
 13
-91.42580130492659
 23
-17.56087670012504
 33
0
 14
-91.42580130492659
 24
-39.56087670012504
 34
0
  0
DIMENSION
  5
13E
100
AcDbEntity
  8
dimensions
  6
CONTINUOUS
 62
    6
420
16718335
370
   20
100
AcDbDimension
 10
-102.8763699838417
 20
-50.56087670012504
 30
0
 11
-102.8763699838417
 21
-50.56087670012504
 31
0
 70
   33
  1
22.00
 71
    5
  3
STANDARD
 53
0
210
0
220
0
230
1
 42
22
100
AcDbAlignedDimension
 13
-91.42580130492659
 23
-39.56087670012504
 33
0
 14
-91.42580130492659
 24
-61.56087670012504
 34
0
  0
DIMENSION
  5
13F
100
AcDbEntity
  8
dimensions
  6
CONTINUOUS
 62
    6
420
16718335
370
   20
100
AcDbDimension
 10
-56.92580130492659
 20
-43.39564898253349
 30
0
 11
-56.92580130492659
 21
-43.39564898253349
 31
0
 70
   33
  1
69.00
 71
    5
  3
STANDARD
 53
0
210
0
220
0
230
1
 42
69
100
AcDbAlignedDimension
 13
-91.42580130492659
 23
-39.56087670012504
 33
0
 14
-22.42580130492659
 24
-39.56087670012504
 34
0
  0
DIMENSION
  5
140
100
AcDbEntity
  8
dimensions
  6
CONTINUOUS
 62
    6
420
16718335
370
   20
100
AcDbDimension
 10
-15.79931480092478
 20
-61.56087670012504
 30
0
 11
-15.79931480092478
 21
-61.56087670012504
 31
0
 70
   33
  1
44.00
 71
    5
  3
STANDARD
 53
0
210
0
220
0
230
1
 42
44
100
AcDbAlignedDimension
 13
-22.42580130492659
 23
-83.56087670012504
 33
0
 14
-22.42580130492659
 24
-39.56087670012504
 34
0
  0
DIMENSION
  5
141
100
AcDbEntity
  8
dimensions
  6
CONTINUOUS
 62
    6
420
16718335
370
   20
100
AcDbDimension
 10
-52.42580130492659
 20
38.43912329987496
 30
0
 11
-52.42580130492659
 21
38.43912329987496
 31
0
 70
   35
  1
⌀2.70
 71
    5
  3
STANDARD
 53
0
210
0
220
0
230
1
 42
2.7
100
AcDbDiametricDimension
 15
-52.42580130492659
 25
38.43912329987496
 35
0
 40
0
  0
DIMENSION
  5
142
100
AcDbEntity
  8
dimensions
  6
CONTINUOUS
 62
    6
420
16718335
370
   20
100
AcDbDimension
 10
7.574198695073409
 20
38.43912329987496
 30
0
 11
7.574198695073409
 21
38.43912329987496
 31
0
 70
   35
  1
⌀2.70
 71
    5
  3
STANDARD
 53
0
210
0
220
0
230
1
 42
2.7
100
AcDbDiametricDimension
 15
7.574198695073409
 25
38.43912329987496
 35
0
 40
0
  0
DIMENSION
  5
143
100
AcDbEntity
  8
dimensions
  6
CONTINUOUS
 62
    6
420
16718335
370
   20
100
AcDbDimension
 10
-52.42580130492659
 20
28.93912329987496
 30
0
 11
-52.42580130492659
 21
28.93912329987496
 31
0
 70
   32
  1
19.00
 71
    5
  3
STANDARD
 53
0
210
0
220
0
230
1
 42
-19
100
AcDbAlignedDimension
 13
-52.42580130492659
 23
38.43912329987496
 33
0
 14
-52.42580130492659
 24
19.43912329987496
 34
0
 50
90
100
AcDbRotatedDimension
  0
DIMENSION
  5
144
100
AcDbEntity
  8
dimensions
  6
CONTINUOUS
 62
    6
420
16718335
370
   20
100
AcDbDimension
 10
-64.82580130492659
 20
68.43912329987496
 30
0
 11
-64.82580130492659
 21
68.43912329987496
 31
0
 70
   35
  1
⌀2.70
 71
    5
  3
STANDARD
 53
0
210
0
220
0
230
1
 42
2.7
100
AcDbDiametricDimension
 15
-64.82580130492659
 25
68.43912329987496
 35
0
 40
0
  0
DIMENSION
  5
145
100
AcDbEntity
  8
dimensions
  6
CONTINUOUS
 62
    6
420
16718335
370
   20
100
AcDbDimension
 10
19.97419869507341
 20
68.43912329987496
 30
0
 11
19.97419869507341
 21
68.43912329987496
 31
0
 70
   35
  1
⌀2.70
 71
    5
  3
STANDARD
 53
0
210
0
220
0
230
1
 42
2.7
100
AcDbDiametricDimension
 15
19.97419869507341
 25
68.43912329987496
 35
0
 40
0
  0
DIMENSION
  5
146
100
AcDbEntity
  8
dimensions
  6
CONTINUOUS
 62
    6
420
16718335
370
   20
100
AcDbDimension
 10
-80.6258013049266
 20
68.43912329987496
 30
0
 11
-80.6258013049266
 21
68.43912329987496
 31
0
 70
   32
  1
31.60
 71
    5
  3
STANDARD
 53
0
210
0
220
0
230
1
 42
-31.6
100
AcDbAlignedDimension
 13
-64.82580130492659
 23
68.43912329987496
 33
0
 14
-96.42580130492659
 24
68.43912329987496
 34
0
100
AcDbRotatedDimension
  0
DIMENSION
  5
147
100
AcDbEntity
  8
dimensions
  6
CONTINUOUS
 62
    6
420
16718335
370
   20
100
AcDbDimension
 10
35.77419869507341
 20
68.43912329987496
 30
0
 11
35.77419869507341
 21
68.43912329987496
 31
0
 70
   32
  1
31.60
 71
    5
  3
STANDARD
 53
0
210
0
220
0
230
1
 42
-31.6
100
AcDbAlignedDimension
 13
19.97419869507341
 23
68.43912329987496
 33
0
 14
51.57419869507341
 24
68.43912329987496
 34
0
 50
180
100
AcDbRotatedDimension
  0
ENDSEC
  0
SECTION
  2
OBJECTS
  0
DICTIONARY
  5
C
330
0
100
AcDbDictionary
281
    1
  3
ACAD_GROUP
350
D
  0
DICTIONARY
  5
D
330
C
100
AcDbDictionary
281
    1
  0
ENDSEC
  0
EOF
